<svg width="36" height="36" viewBox="0 0 36 36" fill="none" xmlns="http://www.w3.org/2000/svg">
<circle cx="18" cy="18" r="18" fill="#FFB700"/>
<path d="M23.625 24.75H16.6875V25.5H23.625V24.75Z" fill="#343A40"/>
<path d="M19.125 26.4375H16.6875V27.1875H19.125V26.4375Z" fill="#343A40"/>
<path d="M23.625 19.125H16.6875V19.875H23.625V19.125Z" fill="#343A40"/>
<path d="M19.125 20.8125H16.6875V21.5625H19.125V20.8125Z" fill="#343A40"/>
<path d="M23.625 13.5H16.6875V14.25H23.625V13.5Z" fill="#343A40"/>
<path d="M19.125 15.1875H16.6875V15.9375H19.125V15.1875Z" fill="#343A40"/>
<path d="M19.0875 7.6875C19.0875 6.95625 18.5062 6.375 17.775 6.375C17.0437 6.375 16.4625 6.95625 16.4625 7.6875H14.625V8.625H9.9375V29.625H25.6875V8.625H21V7.6875H19.0875ZM17.775 7.125C18.0938 7.125 18.3375 7.36875 18.3375 7.6875H17.2125C17.2125 7.36875 17.475 7.125 17.775 7.125ZM15.375 8.4375H20.25V9.5625H15.375V8.4375ZM24.9375 9.375V28.875H10.6875V9.375H14.625V10.3125H21V9.375H24.9375Z" fill="#343A40"/>
<path d="M11.8125 27.75H15.375V24.1875H11.8125V27.75ZM12.5625 24.9375H14.625V27H12.5625V24.9375Z" fill="#343A40"/>
<path d="M11.8125 22.125H15.375V18.5625H11.8125V22.125ZM12.5625 19.3125H14.625V21.375H12.5625V19.3125Z" fill="#343A40"/>
<path d="M11.8125 16.5H15.375V12.9375H11.8125V16.5ZM12.5625 13.6875H14.625V15.75H12.5625V13.6875Z" fill="#343A40"/>
</svg>
