<svg width="17" height="17" viewBox="0 0 17 17" fill="none" xmlns="http://www.w3.org/2000/svg">
<path d="M12.4582 1.77085H12.0623V1.37502C12.0623 1.15652 11.885 0.979187 11.6665 0.979187C11.448 0.979187 11.2707 1.15652 11.2707 1.37502V1.77085H5.729V1.37502C5.729 1.15652 5.55167 0.979187 5.33317 0.979187C5.11467 0.979187 4.93734 1.15652 4.93734 1.37502V1.77085H4.5415C2.57738 1.77085 0.979004 3.36923 0.979004 5.33335V12.4584C0.979004 14.4225 2.57738 16.0209 4.5415 16.0209H12.4582C14.4223 16.0209 16.0207 14.4225 16.0207 12.4584V5.33335C16.0207 3.36844 14.4223 1.77085 12.4582 1.77085ZM4.5415 2.56252H4.93734V3.75002C4.93734 3.96852 5.11467 4.14585 5.33317 4.14585C5.55167 4.14585 5.729 3.96852 5.729 3.75002V2.56252H11.2707V3.75002C11.2707 3.96852 11.448 4.14585 11.6665 4.14585C11.885 4.14585 12.0623 3.96852 12.0623 3.75002V2.56252H12.4582C13.9861 2.56252 15.229 3.80544 15.229 5.33335V5.72919H1.77067V5.33335C1.77067 3.80544 3.01359 2.56252 4.5415 2.56252ZM12.4582 15.2292H4.5415C3.01359 15.2292 1.77067 13.9863 1.77067 12.4584V6.52085H15.229V12.4584C15.229 13.9855 13.9861 15.2292 12.4582 15.2292ZM12.4582 9.29169C12.4582 9.72869 12.1035 10.0834 11.6665 10.0834C11.2295 10.0834 10.8748 9.72869 10.8748 9.29169C10.8748 8.85469 11.2295 8.50002 11.6665 8.50002C12.1035 8.50002 12.4582 8.8539 12.4582 9.29169ZM9.2915 9.29169C9.2915 9.72869 8.93684 10.0834 8.49984 10.0834C8.06284 10.0834 7.70817 9.72869 7.70817 9.29169C7.70817 8.85469 8.06284 8.50002 8.49984 8.50002C8.93684 8.50002 9.2915 8.8539 9.2915 9.29169ZM6.12484 9.29169C6.12484 9.72869 5.77017 10.0834 5.33317 10.0834C4.89617 10.0834 4.5415 9.72869 4.5415 9.29169C4.5415 8.85469 4.89617 8.50002 5.33317 8.50002C5.77017 8.50002 6.12484 8.8539 6.12484 9.29169ZM12.4582 12.4584C12.4582 12.8954 12.1035 13.25 11.6665 13.25C11.2295 13.25 10.8748 12.8954 10.8748 12.4584C10.8748 12.0214 11.2295 11.6667 11.6665 11.6667C12.1035 11.6667 12.4582 12.0206 12.4582 12.4584ZM9.2915 12.4584C9.2915 12.8954 8.93684 13.25 8.49984 13.25C8.06284 13.25 7.70817 12.8954 7.70817 12.4584C7.70817 12.0214 8.06284 11.6667 8.49984 11.6667C8.93684 11.6667 9.2915 12.0206 9.2915 12.4584ZM6.12484 12.4584C6.12484 12.8954 5.77017 13.25 5.33317 13.25C4.89617 13.25 4.5415 12.8954 4.5415 12.4584C4.5415 12.0214 4.89617 11.6667 5.33317 11.6667C5.77017 11.6667 6.12484 12.0206 6.12484 12.4584Z" fill="white"/>
</svg>
