<svg width="39" height="39" viewBox="0 0 39 39" fill="none" xmlns="http://www.w3.org/2000/svg">
<rect width="39" height="39" fill="#FFB700"/>
<path d="M20 12.125C17.5875 12.125 15.625 14.0875 15.625 16.5C15.625 18.9125 17.5875 20.875 20 20.875C22.4125 20.875 24.375 18.9125 24.375 16.5C24.375 14.0875 22.4113 12.125 20 12.125ZM20 19.625C18.2775 19.625 16.875 18.2225 16.875 16.5C16.875 14.7775 18.2775 13.375 20 13.375C21.7225 13.375 23.125 14.7775 23.125 16.5C23.125 18.2225 21.7225 19.625 20 19.625ZM19.995 7.125C14.6538 7.125 10.625 11.155 10.625 16.5C10.625 24.11 16.4487 28.8637 18.9512 30.5537C19.2675 30.7675 19.6313 30.875 19.995 30.875C20.3575 30.875 20.72 30.7688 21.0363 30.555C23.5438 28.8613 29.375 24.1013 29.375 16.4988C29.375 11.155 25.3413 7.125 19.995 7.125ZM20.3375 29.5187C20.1288 29.6587 19.86 29.6588 19.6513 29.5175C17.8275 28.2863 11.875 23.7075 11.875 16.4988C11.875 11.8663 15.365 8.37378 19.995 8.37378C24.63 8.37378 28.125 11.8663 28.125 16.4988C28.125 23.5025 22.6775 27.9375 20.3375 29.5187Z" fill="white"/>
</svg>
