<svg width="39" height="39" viewBox="0 0 39 39" fill="none" xmlns="http://www.w3.org/2000/svg">
<rect width="39" height="39" fill="#FFB700"/>
<path d="M26.25 9.625H13.75C10.6488 9.625 8.125 12.1488 8.125 15.25V22.75C8.125 25.8512 10.6488 28.375 13.75 28.375H26.25C29.3512 28.375 31.875 25.8512 31.875 22.75V15.25C31.875 12.1475 29.3512 9.625 26.25 9.625ZM13.75 10.875H26.25C28.165 10.875 29.7788 12.12 30.37 13.8363L22.4275 19.1312C20.9525 20.1137 19.0488 20.1137 17.5738 19.1312L9.63127 13.8363C10.2213 12.1188 11.835 10.875 13.75 10.875ZM30.625 22.75C30.625 25.1625 28.6625 27.125 26.25 27.125H13.75C11.3375 27.125 9.375 25.1625 9.375 22.75V15.25C9.375 15.2238 9.38248 15.1987 9.38248 15.1725L16.88 20.1713C17.8275 20.8025 18.9137 21.1188 20 21.1188C21.0863 21.1188 22.1725 20.8038 23.12 20.1713L30.6175 15.1725C30.6175 15.1987 30.625 15.2225 30.625 15.25V22.75Z" fill="white"/>
</svg>
