<svg width="39" height="39" viewBox="0 0 39 39" fill="none" xmlns="http://www.w3.org/2000/svg">
<rect width="39" height="39" fill="#FFB700"/>
<path d="M31.8004 24.8059C31.7729 24.6496 31.7417 24.5121 31.7067 24.3896C31.5204 23.7234 30.938 23.2171 30.2242 23.0983L24.8092 22.1971C24.1292 22.0821 23.4392 22.3471 23.0192 22.8833C22.9554 22.9633 22.8955 23.0459 22.838 23.1296C22.6355 23.4259 22.2979 23.5371 21.9992 23.4071C19.1192 22.1546 16.843 19.8783 15.5917 16.9983C15.4617 16.6996 15.5704 16.3646 15.8642 16.1646C15.9754 16.0883 16.0829 16.0083 16.1892 15.9233C16.7117 15.5008 16.9704 14.8258 16.8654 14.1596L16.028 8.84082C15.918 8.14082 15.438 7.57085 14.778 7.3521C14.6092 7.2971 14.413 7.24458 14.1855 7.20333C12.6955 6.93708 11.1705 7.35965 9.99922 8.3659C8.76672 9.4259 8.08421 10.9634 8.12796 12.5846C8.39671 22.5696 16.4305 30.6034 26.4155 30.8734C26.4642 30.8746 26.5117 30.8746 26.5604 30.8746C28.1154 30.8746 29.5854 30.2009 30.6129 29.0121C31.6279 27.8396 32.0604 26.3059 31.8004 24.8059ZM29.6654 28.1984C28.8529 29.1384 27.6867 29.6734 26.448 29.6259C17.1255 29.3746 9.62666 21.8746 9.37666 12.5534C9.34291 11.3096 9.86672 10.1309 10.813 9.31713C11.5242 8.70588 12.4054 8.37963 13.3054 8.37963C13.5242 8.37963 13.7442 8.39837 13.9629 8.43837C14.1242 8.46712 14.2629 8.50338 14.3817 8.54213C14.5967 8.61338 14.7529 8.80335 14.7904 9.03835L15.6292 14.3571C15.6642 14.5834 15.5767 14.8108 15.4017 14.9533C15.3242 15.0171 15.243 15.0771 15.1592 15.1334C14.3667 15.6721 14.0729 16.6446 14.4442 17.4984C15.8229 20.6709 18.328 23.1759 21.5005 24.5559C22.353 24.9246 23.3267 24.6321 23.8705 23.8359C23.9117 23.7759 23.9554 23.7159 24.0017 23.6571C24.1392 23.4784 24.3692 23.3934 24.6029 23.4309L30.0179 24.3321C30.2554 24.3721 30.4454 24.5271 30.5017 24.7271C30.5267 24.8134 30.5479 24.9096 30.5667 25.0196C30.7654 26.1496 30.4367 27.3071 29.6654 28.1984Z" fill="white"/>
</svg>
