<svg width="17" height="13" viewBox="0 0 17 13" fill="none" xmlns="http://www.w3.org/2000/svg">
<path d="M12.4584 0.5625H4.54175C2.57762 0.5625 0.979248 2.16088 0.979248 4.125V8.875C0.979248 10.8391 2.57762 12.4375 4.54175 12.4375H12.4584C14.4225 12.4375 16.0209 10.8391 16.0209 8.875V4.125C16.0209 2.16008 14.4225 0.5625 12.4584 0.5625ZM4.54175 1.35417H12.4584C13.6712 1.35417 14.6933 2.14268 15.0678 3.22964L10.0375 6.58311C9.10334 7.20536 7.89764 7.20536 6.96347 6.58311L1.93322 3.22964C2.30689 2.14189 3.32891 1.35417 4.54175 1.35417ZM15.2292 8.875C15.2292 10.4029 13.9863 11.6458 12.4584 11.6458H4.54175C3.01383 11.6458 1.77091 10.4029 1.77091 8.875V4.125C1.77091 4.10838 1.77565 4.09253 1.77565 4.07591L6.5241 7.2418C7.12419 7.64159 7.81212 7.84188 8.50008 7.84188C9.18804 7.84188 9.87598 7.64238 10.4761 7.2418L15.2245 4.07591C15.2245 4.09253 15.2292 4.10758 15.2292 4.125V8.875Z" fill="white"/>
</svg>
