<svg width="13" height="17" viewBox="0 0 13 17" fill="none" xmlns="http://www.w3.org/2000/svg">
<path d="M6.5 4.14591C4.97208 4.14591 3.72917 5.38883 3.72917 6.91675C3.72917 8.44466 4.97208 9.68758 6.5 9.68758C8.02792 9.68758 9.27083 8.44466 9.27083 6.91675C9.27083 5.38883 8.02713 4.14591 6.5 4.14591ZM6.5 8.89592C5.40908 8.89592 4.52083 8.00766 4.52083 6.91675C4.52083 5.82583 5.40908 4.93758 6.5 4.93758C7.59092 4.93758 8.47917 5.82583 8.47917 6.91675C8.47917 8.00766 7.59092 8.89592 6.5 8.89592ZM6.49684 0.979248C3.11404 0.979248 0.5625 3.53158 0.5625 6.91675C0.5625 11.7364 4.25087 14.7471 5.83579 15.8174C6.03608 15.9528 6.26646 16.0209 6.49684 16.0209C6.72642 16.0209 6.95601 15.9536 7.1563 15.8183C8.74438 14.7456 12.4375 11.7309 12.4375 6.91598C12.4375 3.5316 9.88279 0.979248 6.49684 0.979248ZM6.71375 15.1619C6.58155 15.2506 6.41134 15.2506 6.27913 15.1612C5.12409 14.3814 1.35417 11.4815 1.35417 6.91598C1.35417 3.98206 3.5645 1.77014 6.49684 1.77014C9.43233 1.77014 11.6458 3.98206 11.6458 6.91598C11.6458 11.3517 8.19575 14.1605 6.71375 15.1619Z" fill="white"/>
</svg>
