<svg width="17" height="17" viewBox="0 0 17 17" fill="none" xmlns="http://www.w3.org/2000/svg">
<path d="M15.9736 12.1771C15.9561 12.0781 15.9363 11.991 15.9142 11.9135C15.7962 11.4915 15.4273 11.1709 14.9753 11.0956L11.5458 10.5249C11.1151 10.4521 10.6781 10.6199 10.4121 10.9595C10.3717 11.0101 10.3337 11.0624 10.2973 11.1155C10.1691 11.3031 9.95531 11.3735 9.7661 11.2912C7.9421 10.4979 6.5005 9.0563 5.70804 7.23231C5.62571 7.0431 5.69455 6.83094 5.88059 6.70427C5.95105 6.65598 6.01914 6.60532 6.08643 6.55148C6.41735 6.2839 6.58123 5.85639 6.51473 5.43443L5.98433 2.06589C5.91466 1.62256 5.61066 1.26157 5.19266 1.12303C5.08579 1.0882 4.9615 1.05493 4.81741 1.02881C3.87375 0.860182 2.90792 1.12781 2.16612 1.7651C1.38554 2.43643 0.953283 3.41018 0.980991 4.43697C1.1512 10.7608 6.23925 15.8488 12.5631 16.0198C12.594 16.0206 12.624 16.0206 12.6549 16.0206C13.6397 16.0206 14.5707 15.5939 15.2215 14.841C15.8643 14.0984 16.1382 13.1271 15.9736 12.1771ZM14.6214 14.3257C14.1068 14.921 13.3682 15.2598 12.5837 15.2298C6.67941 15.0706 1.93017 10.3206 1.77184 4.41716C1.75046 3.62945 2.08221 2.88292 2.6815 2.36755C3.13196 1.98042 3.69005 1.7738 4.26005 1.7738C4.39859 1.7738 4.53792 1.78567 4.67647 1.811C4.77859 1.82921 4.86648 1.85218 4.94169 1.87672C5.07786 1.92184 5.17679 2.04215 5.20054 2.19099L5.73176 5.55953C5.75393 5.70282 5.69851 5.8469 5.58768 5.93715C5.53859 5.97752 5.48716 6.01556 5.43412 6.05118C4.9322 6.39239 4.74614 7.00828 4.98127 7.54899C5.85447 9.55824 7.44099 11.1447 9.45024 12.0187C9.99016 12.2523 10.6069 12.067 10.9512 11.5627C10.9774 11.5247 11.0051 11.4867 11.0343 11.4495C11.1214 11.3363 11.2671 11.2825 11.4152 11.3063L14.8446 11.877C14.995 11.9024 15.1154 12.0005 15.151 12.1272C15.1669 12.1818 15.1803 12.2428 15.1922 12.3125C15.3181 13.0281 15.1099 13.7612 14.6214 14.3257Z" fill="white"/>
</svg>
