<svg width="29" height="30" viewBox="0 0 29 30" fill="none" xmlns="http://www.w3.org/2000/svg">
<circle cx="14.5" cy="14.5" r="14.5" fill="#FFB700"/>
<path d="M18.498 20.5156V22H9.19141V20.7012L13.8496 15.5156C14.4225 14.8776 14.8652 14.3372 15.1777 13.8945C15.4967 13.4453 15.7181 13.0449 15.8418 12.6934C15.972 12.3353 16.0371 11.9707 16.0371 11.5996C16.0371 11.1309 15.9395 10.7077 15.7441 10.3301C15.5553 9.94596 15.2754 9.63997 14.9043 9.41211C14.5332 9.18424 14.084 9.07031 13.5566 9.07031C12.9251 9.07031 12.3978 9.19401 11.9746 9.44141C11.5579 9.68229 11.2454 10.0208 11.0371 10.457C10.8288 10.8932 10.7246 11.3945 10.7246 11.9609H8.91797C8.91797 11.1602 9.09375 10.4277 9.44531 9.76367C9.79688 9.09961 10.3177 8.57227 11.0078 8.18164C11.6979 7.78451 12.5475 7.58594 13.5566 7.58594C14.4551 7.58594 15.2233 7.74544 15.8613 8.06445C16.4993 8.37695 16.9876 8.81966 17.3262 9.39258C17.6712 9.95898 17.8438 10.623 17.8438 11.3848C17.8438 11.8014 17.7721 12.2246 17.6289 12.6543C17.4922 13.0775 17.3001 13.5007 17.0527 13.9238C16.8118 14.347 16.5286 14.7637 16.2031 15.1738C15.8841 15.584 15.5423 15.9876 15.1777 16.3848L11.3691 20.5156H18.498Z" fill="#353535"/>
</svg>
