<svg width="29" height="30" viewBox="0 0 29 30" fill="none" xmlns="http://www.w3.org/2000/svg">
<circle cx="14.5" cy="14.5" r="14.5" fill="#FFB700"/>
<path d="M11.8184 14.002H13.1074C13.7389 14.002 14.2598 13.8978 14.6699 13.6895C15.0866 13.4746 15.3958 13.1849 15.5977 12.8203C15.806 12.4492 15.9102 12.0326 15.9102 11.5703C15.9102 11.0234 15.819 10.5645 15.6367 10.1934C15.4544 9.82227 15.181 9.54232 14.8164 9.35352C14.4518 9.16471 13.9896 9.07031 13.4297 9.07031C12.9219 9.07031 12.4727 9.17122 12.082 9.37305C11.6979 9.56836 11.3952 9.84831 11.1738 10.2129C10.959 10.5775 10.8516 11.0072 10.8516 11.502H9.04492C9.04492 10.7793 9.22721 10.1217 9.5918 9.5293C9.95638 8.93685 10.4674 8.46484 11.125 8.11328C11.7891 7.76172 12.5573 7.58594 13.4297 7.58594C14.2891 7.58594 15.041 7.73893 15.6855 8.04492C16.3301 8.3444 16.8314 8.79362 17.1895 9.39258C17.5475 9.98503 17.7266 10.724 17.7266 11.6094C17.7266 11.9674 17.6419 12.3516 17.4727 12.7617C17.3099 13.1654 17.0527 13.543 16.7012 13.8945C16.3561 14.2461 15.9069 14.5358 15.3535 14.7637C14.8001 14.985 14.1361 15.0957 13.3613 15.0957H11.8184V14.002ZM11.8184 15.4863V14.4023H13.3613C14.2663 14.4023 15.015 14.5098 15.6074 14.7246C16.1999 14.9395 16.6654 15.2259 17.0039 15.584C17.349 15.9421 17.5898 16.3359 17.7266 16.7656C17.8698 17.1888 17.9414 17.612 17.9414 18.0352C17.9414 18.6992 17.8275 19.2884 17.5996 19.8027C17.3783 20.3171 17.0625 20.7533 16.6523 21.1113C16.2487 21.4694 15.7734 21.7396 15.2266 21.9219C14.6797 22.1042 14.084 22.1953 13.4395 22.1953C12.821 22.1953 12.2383 22.1074 11.6914 21.9316C11.151 21.7559 10.6725 21.502 10.2559 21.1699C9.83919 20.8314 9.51367 20.418 9.2793 19.9297C9.04492 19.4349 8.92773 18.8717 8.92773 18.2402H10.7344C10.7344 18.735 10.8418 19.168 11.0566 19.5391C11.278 19.9102 11.5905 20.1999 11.9941 20.4082C12.4043 20.61 12.8861 20.7109 13.4395 20.7109C13.9928 20.7109 14.4681 20.6165 14.8652 20.4277C15.2689 20.2324 15.5781 19.9395 15.793 19.5488C16.0143 19.1582 16.125 18.6667 16.125 18.0742C16.125 17.4818 16.0013 16.9967 15.7539 16.6191C15.5065 16.235 15.1549 15.9518 14.6992 15.7695C14.25 15.5807 13.7194 15.4863 13.1074 15.4863H11.8184Z" fill="#353535"/>
</svg>
