<svg width="58" height="38" viewBox="0 0 58 38" fill="none" xmlns="http://www.w3.org/2000/svg">
<path d="M11 0C9.69 0 9.68 2.02 11 2H55C55.572 2 56 2.428 56 3V29C56 30.32 58 30.32 58 29V3C58 1.356 56.644 0 55 0H11ZM7 4C5.692 4 5.692 6 7 6H51C51.572 6 52 6.428 52 7V33C52 34.33 54.02 34.32 54 33V7C54 5.356 52.644 4 51 4H7ZM3 8C1.356 8 0 9.356 0 11V35C0 36.644 1.356 38 3 38H47C48.644 38 50 36.644 50 35V11C50 9.356 48.644 8 47 8H3ZM3 10H47C47.572 10 48 10.428 48 11V35C48 35.572 47.572 36 47 36H3C2.428 36 2 35.572 2 35V11C2 10.428 2.428 10 3 10ZM5 12C4.448 12 4 12.448 4 13V17C4 18.344 6 18.312 6 17V14H9C10.344 14 10.312 12 9 12H5ZM25 12C18.936 12 14 16.936 14 23C14 29.064 18.936 34 25 34C31.064 34 36 29.064 36 23C36 16.936 31.064 12 25 12ZM41 12C39.688 12 39.656 14 41 14H44V17C44 18.312 46 18.344 46 17V13C46 12.448 45.552 12 45 12H41ZM25 14C29.98 14 34 18.02 34 23C34 27.98 29.98 32 25 32C20.02 32 16 27.98 16 23C16 18.02 20.02 14 25 14ZM25 16C24.446 16 24 16.446 24 17V18.188C22.844 18.608 22 19.708 22 21C22 22.64 23.36 24 25 24C25.56 24 26 24.424 26 25C26 25.576 25.56 26 25 26H23C22.324 25.99 22 26.496 22 27C22 27.504 22.324 28.01 23 28H24V29C24 29.554 24.446 30 25 30C25.554 30 26 29.554 26 29V27.812C27.156 27.392 28 26.292 28 25C28 23.36 26.64 22 25 22C24.44 22 24 21.576 24 21C24 20.424 24.44 20 25 20H27C27.676 20.01 28 19.504 28 19C28 18.496 27.676 17.99 27 18H26V17C26 16.446 25.554 16 25 16ZM5 28.004C4.5 28 4 28.328 4 29V33C4 33.552 4.448 34 5 34H9C10.312 34 10.344 32 9 32H6V29C6 28.344 5.5 28.008 5 28.004ZM45 28.004C44.5 28.008 44 28.344 44 29V32H41C39.656 32 39.688 34 41 34H45C45.552 34 46 33.552 46 33V29C46 28.328 45.5 28 45 28.004Z" fill="#343A40"/>
</svg>
