<svg width="60" height="56" viewBox="0 0 60 56" fill="none" xmlns="http://www.w3.org/2000/svg">
<path d="M3 20C1.356 20 0 21.356 0 23V53C0 54.644 1.356 56 3 56H17C18.644 56 20 54.644 20 53V23C20 21.356 18.644 20 17 20H3ZM3 22H17C17.572 22 18 22.428 18 23V53C18 53.572 17.572 54 17 54H3C2.428 54 2 53.572 2 53V23C2 22.428 2.428 22 3 22ZM35 0C34.276 0 33.56 0.0800001 32.88 0.38C32.204 0.68 31.596 1.214 31.168 1.94C30.312 3.4 30 5.534 30 9C30 15.308 25.46 20.156 22.446 22.168C21.386 22.848 22.486 24.568 23.554 23.832C26.54 21.844 32 16.292 32 9C32 5.67 32.394 3.8 32.89 2.96C33.14 2.534 33.374 2.346 33.69 2.208C34 2.068 34.43 2 35 2C35.954 2 36.496 2.316 37.06 3.532C37.628 4.748 38 6.888 38 10C38 15.954 34.24 22.348 34.24 22.348C33.684 22.996 34.144 24 35 24H55C56.16 24 56.85 24.296 57.29 24.75C57.73 25.204 58 25.91 58 27C58 28.992 56.406 30.196 56.406 30.196C55.86 30.596 55.866 31.416 56.418 31.812C56.418 31.812 57.998 32.952 57.998 35C57.998 37.05 56.418 38.188 56.418 38.188C55.812 38.624 55.878 39.544 56.542 39.888C56.542 39.888 57.998 40.574 57.998 42.5C57.998 44.426 56.542 45.114 56.542 45.114C55.834 45.48 55.818 46.486 56.514 46.874C56.514 46.874 57.998 47.666 57.998 49.5C57.998 50.42 57.67 50.946 57.138 51.356C56.606 51.764 55.814 52 54.998 52H22.998C21.644 52 21.714 54 22.998 54H54.998C56.182 54 57.39 53.684 58.358 52.94C59.326 52.2 59.998 50.974 59.998 49.5C59.998 47.752 59.226 46.706 58.506 46.008C59.23 45.314 59.998 44.268 59.998 42.5C59.998 40.648 59.172 39.61 58.432 38.934C59.146 38.174 59.998 37 59.998 35C59.998 32.914 59.082 31.726 58.366 30.996C59.078 30.262 59.998 29.07 59.998 27C59.998 25.566 59.612 24.276 58.724 23.36C57.836 22.444 56.524 22 54.998 22H36.826C38.024 20.306 40 15.08 40 10C40 6.74 39.66 4.38 38.874 2.688C38.088 0.996 36.634 0 35 0Z" fill="#343A40"/>
</svg>
