<svg width="36" height="36" viewBox="0 0 36 36" fill="none" xmlns="http://www.w3.org/2000/svg">
<circle cx="18" cy="18" r="18" fill="#FFB700"/>
<g clip-path="url(#clip0_0_4792)">
<path d="M12.75 8.4375C12.8613 8.4375 12.97 8.40451 13.0625 8.3427C13.155 8.28089 13.2271 8.19304 13.2697 8.09026C13.3123 7.98748 13.3234 7.87438 13.3017 7.76526C13.28 7.65615 13.2264 7.55592 13.1477 7.47725C13.0691 7.39859 12.9689 7.34501 12.8597 7.32331C12.7506 7.3016 12.6375 7.31274 12.5347 7.35532C12.432 7.39789 12.3441 7.46999 12.2823 7.56249C12.2205 7.65499 12.1875 7.76375 12.1875 7.875C12.1875 8.02418 12.2468 8.16726 12.3523 8.27275C12.4577 8.37824 12.6008 8.4375 12.75 8.4375ZM12.75 7.6875C12.7871 7.6875 12.8233 7.6985 12.8542 7.7191C12.885 7.7397 12.909 7.76899 12.9232 7.80325C12.9374 7.83751 12.9411 7.87521 12.9339 7.91158C12.9267 7.94795 12.9088 7.98136 12.8826 8.00758C12.8564 8.03381 12.823 8.05166 12.7866 8.0589C12.7502 8.06613 12.7125 8.06242 12.6782 8.04823C12.644 8.03404 12.6147 8.01 12.5941 7.97917C12.5735 7.94834 12.5625 7.91208 12.5625 7.875C12.5625 7.82527 12.5823 7.77758 12.6174 7.74242C12.6526 7.70725 12.7003 7.6875 12.75 7.6875Z" fill="#343A40"/>
<path d="M14.25 8.25C14.4571 8.25 14.625 8.08211 14.625 7.875C14.625 7.66789 14.4571 7.5 14.25 7.5C14.0429 7.5 13.875 7.66789 13.875 7.875C13.875 8.08211 14.0429 8.25 14.25 8.25Z" fill="#343A40"/>
<path d="M11.25 8.25C11.4571 8.25 11.625 8.08211 11.625 7.875C11.625 7.66789 11.4571 7.5 11.25 7.5C11.0429 7.5 10.875 7.66789 10.875 7.875C10.875 8.08211 11.0429 8.25 11.25 8.25Z" fill="#343A40"/>
<path d="M28.125 11.625H19.125V7.875C19.125 7.37772 18.9275 6.90081 18.5758 6.54917C18.2242 6.19754 17.7473 6 17.25 6H8.25C8.00377 6 7.75995 6.0485 7.53247 6.14273C7.30498 6.23695 7.09828 6.37506 6.92417 6.54917C6.57254 6.90081 6.375 7.37772 6.375 7.875V9C6.27554 9 6.18016 9.03951 6.10983 9.10984C6.03951 9.18016 6 9.27554 6 9.375V10.875C6 10.9745 6.03951 11.0698 6.10983 11.1402C6.18016 11.2105 6.27554 11.25 6.375 11.25V12.375C6.27554 12.375 6.18016 12.4145 6.10983 12.4848C6.03951 12.5552 6 12.6505 6 12.75V14.25C6 14.3495 6.03951 14.4448 6.10983 14.5152C6.18016 14.5855 6.27554 14.625 6.375 14.625V28.125C6.375 28.6223 6.57254 29.0992 6.92417 29.4508C7.09828 29.6249 7.30498 29.763 7.53247 29.8573C7.75995 29.9515 8.00377 30 8.25 30H17.25C17.7473 30 18.2242 29.8025 18.5758 29.4508C18.9275 29.0992 19.125 28.6223 19.125 28.125V25.875L20.4487 24.6788C20.6547 24.4934 20.9217 24.3906 21.1987 24.39H28.125C28.2511 24.3886 28.3767 24.3748 28.5 24.3488C28.6288 24.3201 28.7544 24.2786 28.875 24.225H28.8975C29.2287 24.0753 29.5092 23.8325 29.705 23.5262C29.9007 23.22 30.0032 22.8634 30 22.5V13.5C30 13.0027 29.8025 12.5258 29.4508 12.1742C29.0992 11.8225 28.6223 11.625 28.125 11.625ZM14.25 24.375H15C15.2686 24.3712 15.5296 24.4637 15.7359 24.6356C15.9423 24.8076 16.0803 25.0477 16.125 25.3125H7.125V8.0625H8.25C8.44291 8.06743 8.63228 8.11545 8.80423 8.20305C8.97618 8.29064 9.12635 8.41559 9.24375 8.56875C9.39389 8.75889 9.58459 8.9131 9.80192 9.02015C10.0193 9.12719 10.2578 9.18437 10.5 9.1875H15C15.2422 9.18437 15.4807 9.12719 15.6981 9.02015C15.9154 8.9131 16.1061 8.75889 16.2563 8.56875C16.3737 8.41559 16.5238 8.29064 16.6958 8.20305C16.8677 8.11545 17.0571 8.06743 17.25 8.0625H18.375V11.625H14.25C13.7527 11.625 13.2758 11.8225 12.9242 12.1742C12.5725 12.5258 12.375 13.0027 12.375 13.5V22.5C12.375 22.9973 12.5725 23.4742 12.9242 23.8258C13.2758 24.1775 13.7527 24.375 14.25 24.375ZM8.25 6.75H17.25C17.5186 6.74625 17.7796 6.8387 17.9859 7.01064C18.1923 7.18258 18.3303 7.42267 18.375 7.6875H17.25C17.0078 7.69063 16.7693 7.74781 16.5519 7.85485C16.3346 7.9619 16.1439 8.11611 15.9937 8.30625C15.8763 8.45941 15.7262 8.58436 15.5542 8.67195C15.3823 8.75955 15.1929 8.80757 15 8.8125H10.5C10.3071 8.80757 10.1177 8.75955 9.94577 8.67195C9.77382 8.58436 9.62365 8.45941 9.50625 8.30625C9.35611 8.11611 9.16541 7.9619 8.94808 7.85485C8.73074 7.74781 8.49225 7.69063 8.25 7.6875H7.14375C7.18797 7.42587 7.32325 7.18829 7.52568 7.01674C7.72811 6.84519 7.98466 6.75071 8.25 6.75ZM18.375 28.125C18.375 28.4234 18.2565 28.7095 18.0455 28.9205C17.8345 29.1315 17.5484 29.25 17.25 29.25H8.25C7.95163 29.25 7.66548 29.1315 7.4545 28.9205C7.24353 28.7095 7.125 28.4234 7.125 28.125V25.6875H16.125V27.0938C16.1242 27.2181 16.1591 27.34 16.2256 27.445C16.292 27.5501 16.3873 27.6338 16.5 27.6863C16.5506 27.7115 16.6051 27.728 16.6613 27.735H16.71H16.7775H16.8112C16.8595 27.733 16.9073 27.7255 16.9537 27.7125L17.0175 27.6937C17.0863 27.6656 17.1507 27.6278 17.2087 27.5812L18.375 26.535V28.125ZM24.7838 23.625L22.6425 21.4875C22.5114 21.3547 22.3486 21.2574 22.1695 21.2049C21.9904 21.1524 21.8008 21.1464 21.6188 21.1875C21.1661 21.2833 20.6974 21.2717 20.25 21.1537C19.7376 21.0161 19.2704 20.7462 18.8952 20.371C18.5201 19.9958 18.2501 19.5286 18.1125 19.0162C18.0157 18.661 17.989 18.2904 18.0338 17.925L19.1588 19.05C19.3729 19.2545 19.6576 19.3686 19.9537 19.3686C20.2499 19.3686 20.5346 19.2545 20.7488 19.05L21.795 18C22.0057 17.7891 22.124 17.5031 22.124 17.205C22.124 16.9069 22.0057 16.6209 21.795 16.41L20.67 15.285C21.0369 15.2434 21.4084 15.2714 21.765 15.3675C22.2772 15.5055 22.7442 15.7755 23.1193 16.1507C23.4945 16.5258 23.7645 16.9928 23.9025 17.505C24.021 17.9562 24.0313 18.4291 23.9325 18.885C23.8937 19.068 23.9012 19.2578 23.9542 19.4372C24.0072 19.6166 24.1042 19.78 24.2362 19.9125L27.9637 23.625H24.7838ZM29.25 22.5C29.249 22.6743 29.2075 22.846 29.1287 23.0016C29.05 23.1571 28.9362 23.2922 28.7962 23.3962L24.75 19.3688C24.7068 19.3243 24.6753 19.2699 24.6583 19.2104C24.6413 19.1508 24.6393 19.088 24.6525 19.0275C24.7756 18.4561 24.7615 17.8636 24.6112 17.2987C24.4398 16.6599 24.1043 16.0769 23.6378 15.6079C23.1714 15.1389 22.5904 14.8 21.9525 14.625C21.506 14.5093 21.0424 14.475 20.5837 14.5238C20.4431 14.5397 20.3099 14.5951 20.1995 14.6836C20.089 14.7721 20.0059 14.89 19.9596 15.0237C19.9133 15.1574 19.9058 15.3015 19.938 15.4393C19.9701 15.5771 20.0406 15.703 20.1412 15.8025L21.2662 16.9275C21.3355 16.9973 21.3746 17.0916 21.375 17.19C21.3753 17.2394 21.3658 17.2883 21.3472 17.334C21.3285 17.3797 21.301 17.4212 21.2662 17.4562L20.205 18.5175C20.1701 18.5526 20.1287 18.5805 20.083 18.5996C20.0373 18.6186 19.9883 18.6284 19.9387 18.6284C19.8892 18.6284 19.8402 18.6186 19.7945 18.5996C19.7488 18.5805 19.7074 18.5526 19.6725 18.5175L18.5475 17.3925C18.448 17.2918 18.3221 17.2214 18.1843 17.1892C18.0465 17.1571 17.9024 17.1646 17.7687 17.2108C17.635 17.2571 17.5171 17.3403 17.4286 17.4507C17.3401 17.5612 17.2847 17.6944 17.2687 17.835C17.2164 18.2936 17.2508 18.7579 17.37 19.2037C17.5427 19.845 17.881 20.4297 18.3509 20.8989C18.8209 21.3682 19.406 21.7057 20.0475 21.8775C20.6111 22.0278 21.2024 22.042 21.7725 21.9188C21.8324 21.9062 21.8945 21.9085 21.9534 21.9255C22.0122 21.9425 22.066 21.9737 22.11 22.0163L23.7225 23.625H21.2025C20.7383 23.6252 20.2907 23.7976 19.9462 24.1087L18.4988 25.4137L16.875 26.88V25.5C16.875 25.0027 16.6775 24.5258 16.3258 24.1742C15.9742 23.8225 15.4973 23.625 15 23.625H14.25C13.9516 23.625 13.6655 23.5065 13.4545 23.2955C13.2435 23.0845 13.125 22.7984 13.125 22.5V13.5C13.125 13.2016 13.2435 12.9155 13.4545 12.7045C13.6655 12.4935 13.9516 12.375 14.25 12.375H28.125C28.4234 12.375 28.7095 12.4935 28.9205 12.7045C29.1315 12.9155 29.25 13.2016 29.25 13.5V22.5Z" fill="#343A40"/>
<path d="M19.4137 16.1251L18.8812 16.6538C18.7768 16.7598 18.7183 16.9025 18.7183 17.0513C18.7183 17.2001 18.7768 17.3429 18.8812 17.4488L19.4137 18.0001C19.4653 18.0532 19.5271 18.0952 19.5955 18.1236C19.6638 18.1519 19.7372 18.1661 19.8112 18.1651C19.8852 18.1656 19.9585 18.1513 20.0268 18.123C20.095 18.0946 20.1569 18.0528 20.2087 18.0001L20.7375 17.4713C20.7901 17.4193 20.8319 17.3574 20.8604 17.2892C20.8889 17.221 20.9036 17.1478 20.9036 17.0738C20.9036 16.9999 20.8889 16.9266 20.8604 16.8584C20.8319 16.7902 20.7901 16.7283 20.7375 16.6763L20.2087 16.1251C20.1568 16.0724 20.0949 16.0307 20.0266 16.0022C19.9584 15.9737 19.8852 15.959 19.8112 15.959C19.7373 15.959 19.6641 15.9737 19.5958 16.0022C19.5276 16.0307 19.4657 16.0724 19.4137 16.1251ZM20.475 16.9201C20.5093 16.9551 20.5286 17.0022 20.5286 17.0513C20.5286 17.1004 20.5093 17.1475 20.475 17.1826L19.9425 17.7151C19.9068 17.7497 19.8591 17.769 19.8094 17.769C19.7597 17.769 19.7119 17.7497 19.6762 17.7151L19.1475 17.1826C19.1131 17.1475 19.0939 17.1004 19.0939 17.0513C19.0939 17.0022 19.1131 16.9551 19.1475 16.9201L19.6762 16.3876C19.7132 16.354 19.7613 16.3353 19.8112 16.3351C19.86 16.3355 19.9068 16.3543 19.9425 16.3876L20.475 16.9201Z" fill="#343A40"/>
<path d="M19.875 12.9375C19.8253 12.9375 19.7776 12.9573 19.7424 12.9924C19.7073 13.0276 19.6875 13.0753 19.6875 13.125V13.875C19.6875 13.9247 19.7073 13.9724 19.7424 14.0076C19.7776 14.0427 19.8253 14.0625 19.875 14.0625C19.9247 14.0625 19.9724 14.0427 20.0076 14.0076C20.0427 13.9724 20.0625 13.9247 20.0625 13.875V13.125C20.0625 13.0753 20.0427 13.0276 20.0076 12.9924C19.9724 12.9573 19.9247 12.9375 19.875 12.9375Z" fill="#343A40"/>
<path d="M19.1251 14.0626C19.1497 14.0629 19.174 14.058 19.1966 14.0483C19.2193 14.0386 19.2396 14.0243 19.2563 14.0063C19.2743 13.9895 19.2886 13.9692 19.2983 13.9466C19.3081 13.924 19.3131 13.8997 19.3131 13.8751C19.3131 13.8505 19.3081 13.8261 19.2983 13.8036C19.2886 13.781 19.2743 13.7607 19.2563 13.7438L18.8813 13.3688C18.8641 13.3516 18.8436 13.3379 18.8211 13.3286C18.7986 13.3193 18.7744 13.3145 18.7501 13.3145C18.7257 13.3145 18.7016 13.3193 18.679 13.3286C18.6565 13.3379 18.6361 13.3516 18.6188 13.3688C18.6016 13.3861 18.5879 13.4065 18.5786 13.429C18.5693 13.4516 18.5645 13.4757 18.5645 13.5001C18.5645 13.5244 18.5693 13.5486 18.5786 13.5711C18.5879 13.5936 18.6016 13.6141 18.6188 13.6313L18.9938 14.0063C19.0106 14.0243 19.0309 14.0386 19.0535 14.0483C19.0761 14.058 19.1005 14.0629 19.1251 14.0626Z" fill="#343A40"/>
<path d="M9.375 26.0625C9.11541 26.0625 8.86165 26.1395 8.64581 26.2837C8.42998 26.4279 8.26175 26.6329 8.16241 26.8727C8.06307 27.1126 8.03708 27.3765 8.08772 27.6311C8.13836 27.8857 8.26337 28.1195 8.44692 28.3031C8.63048 28.4866 8.86434 28.6116 9.11894 28.6623C9.37354 28.7129 9.63744 28.6869 9.87727 28.5876C10.1171 28.4883 10.3221 28.32 10.4663 28.1042C10.6105 27.8883 10.6875 27.6346 10.6875 27.375C10.6875 27.0269 10.5492 26.6931 10.3031 26.4469C10.0569 26.2008 9.7231 26.0625 9.375 26.0625ZM9.375 28.3125C9.18958 28.3125 9.00832 28.2575 8.85415 28.1545C8.69998 28.0515 8.57982 27.9051 8.50886 27.7338C8.43791 27.5625 8.41934 27.374 8.45551 27.1921C8.49169 27.0102 8.58098 26.8432 8.71209 26.7121C8.8432 26.581 9.01025 26.4917 9.1921 26.4555C9.37396 26.4193 9.56246 26.4379 9.73377 26.5089C9.90507 26.5798 10.0515 26.7 10.1545 26.8542C10.2575 27.0083 10.3125 27.1896 10.3125 27.375C10.3125 27.4981 10.2883 27.62 10.2411 27.7338C10.194 27.8475 10.125 27.9509 10.0379 28.0379C9.95086 28.125 9.84751 28.194 9.73377 28.2411C9.62002 28.2883 9.49811 28.3125 9.375 28.3125Z" fill="#343A40"/>
<path d="M15.75 27.9375H12.375C12.2258 27.9375 12.0827 27.8782 11.9773 27.7727C11.8718 27.6673 11.8125 27.5242 11.8125 27.375C11.8125 27.2258 11.8718 27.0827 11.9773 26.9773C12.0827 26.8718 12.2258 26.8125 12.375 26.8125H15.375C15.4247 26.8125 15.4724 26.7927 15.5076 26.7576C15.5427 26.7224 15.5625 26.6747 15.5625 26.625C15.5625 26.5753 15.5427 26.5276 15.5076 26.4924C15.4724 26.4573 15.4247 26.4375 15.375 26.4375H12.375C12.1264 26.4375 11.8879 26.5363 11.7121 26.7121C11.5363 26.8879 11.4375 27.1264 11.4375 27.375C11.4375 27.6236 11.5363 27.8621 11.7121 28.0379C11.8879 28.2137 12.1264 28.3125 12.375 28.3125H15.75C15.7997 28.3125 15.8474 28.2927 15.8826 28.2576C15.9177 28.2224 15.9375 28.1747 15.9375 28.125C15.9375 28.0753 15.9177 28.0276 15.8826 27.9924C15.8474 27.9573 15.7997 27.9375 15.75 27.9375Z" fill="#343A40"/>
</g>
<defs>
<clipPath id="clip0_0_4792">
<rect width="24" height="24" fill="white" transform="translate(6 6)"/>
</clipPath>
</defs>
</svg>
