<svg width="36" height="36" viewBox="0 0 36 36" fill="none" xmlns="http://www.w3.org/2000/svg">
<circle cx="18" cy="18" r="18" fill="#FFB700"/>
<g clip-path="url(#clip0_0_4810)">
<path d="M11.5238 22.0877C11.6719 22.2323 11.843 22.3514 12.03 22.4402C12.0932 23.6894 12.3618 24.9196 12.825 26.0814C13.0206 26.5456 13.1226 27.0439 13.125 27.5477V28.8752C13.125 29.1735 13.2436 29.4597 13.4545 29.6707C13.6655 29.8816 13.9517 30.0002 14.25 30.0002H18.75C19.0484 30.0002 19.3346 29.8816 19.5455 29.6707C19.7565 29.4597 19.875 29.1735 19.875 28.8752C19.8756 28.2327 20.0952 27.6097 20.4975 27.1089L22.9463 24.0564C22.9875 24.0114 23.025 23.9627 23.0625 23.9177C23.1 23.8727 23.1375 23.8389 23.1713 23.7939C23.205 23.7489 23.2425 23.6927 23.2763 23.6402L23.37 23.5052C23.4038 23.4489 23.4263 23.3927 23.4563 23.3402C23.4863 23.2877 23.5088 23.2427 23.5313 23.1939C23.5538 23.1452 23.58 23.0739 23.6025 23.0139L23.6588 22.8677C23.6588 22.8039 23.6925 22.7402 23.7075 22.6727C23.7225 22.6052 23.7338 22.5789 23.745 22.5302C23.7563 22.4814 23.745 22.3914 23.7713 22.3239C23.7975 22.2564 23.7713 22.2302 23.7938 22.1814C23.8163 22.1327 23.7938 22.0239 23.7938 21.9452C23.7938 21.8664 23.7938 21.8702 23.7938 21.8289C23.79 21.7108 23.7787 21.5931 23.76 21.4764L23.73 21.2964L23.355 18.8664C23.3131 18.6077 23.2375 18.3555 23.13 18.1164C23.1241 18.1007 23.1165 18.0856 23.1075 18.0714C22.7725 17.363 22.1735 16.8139 21.4388 16.5414L20.2688 16.1252L21.57 14.8502L22.875 13.5002C22.9191 13.4576 22.9728 13.4265 23.0317 13.4095C23.0905 13.3925 23.1526 13.3901 23.2125 13.4027C24.1315 13.5969 25.0899 13.4392 25.8982 12.9608C26.7064 12.4823 27.3057 11.718 27.5775 10.8189C27.7257 10.3336 27.7729 9.82315 27.7163 9.31892C27.7003 9.17786 27.6446 9.04423 27.5556 8.93358C27.4667 8.82293 27.3482 8.73979 27.2138 8.69384C27.0795 8.64788 26.9349 8.641 26.7968 8.67398C26.6587 8.70697 26.5328 8.77847 26.4338 8.88017L25.3913 9.94517C25.3564 9.98032 25.3149 10.0082 25.2693 10.0273C25.2236 10.0463 25.1745 10.0561 25.125 10.0561C25.0755 10.0561 25.0265 10.0463 24.9808 10.0273C24.9351 10.0082 24.8936 9.98032 24.8588 9.94517L23.8088 8.89892C23.7731 8.86299 23.7451 8.82022 23.7264 8.77317C23.7077 8.72612 23.6987 8.67578 23.7 8.62517C23.6997 8.57492 23.7095 8.52513 23.7289 8.47875C23.7482 8.43237 23.7767 8.39034 23.8125 8.35517L24.8588 7.29017C24.9588 7.19002 25.0283 7.06364 25.0595 6.92562C25.0907 6.7876 25.0822 6.64357 25.035 6.51017C24.9873 6.37952 24.9041 6.26474 24.7948 6.17865C24.6855 6.09256 24.5545 6.03855 24.4163 6.02267C23.9118 5.96984 23.4018 6.01829 22.9163 6.16517C22.0215 6.4407 21.2621 7.04099 20.7874 7.84803C20.3128 8.65508 20.1572 9.61048 20.3513 10.5264C20.3653 10.5884 20.3634 10.6529 20.3457 10.7139C20.328 10.7749 20.2951 10.8304 20.25 10.8752L18.0675 13.0127C17.8945 12.7849 17.66 12.6113 17.3916 12.5124C17.1232 12.4134 16.8321 12.3934 16.5526 12.4545C16.2731 12.5155 16.017 12.6553 15.8143 12.8572C15.6116 13.0591 15.4709 13.3147 15.4088 13.5939C15.1856 13.5307 14.9509 13.5201 14.7229 13.563C14.495 13.6058 14.2801 13.7009 14.0952 13.8408C13.9102 13.9807 13.7602 14.1616 13.6569 14.3693C13.5537 14.577 13.5 14.8057 13.5 15.0377C13.4989 15.2157 13.5307 15.3924 13.5938 15.5589H13.5038C13.2694 15.5964 13.0472 15.689 12.8555 15.8291C12.6639 15.9691 12.5082 16.1527 12.4013 16.3647C12.2944 16.5766 12.2394 16.8109 12.2407 17.0483C12.242 17.2857 12.2996 17.5194 12.4088 17.7302C12.0369 17.8464 11.7249 18.1028 11.5387 18.4451C11.3526 18.7873 11.3068 19.1886 11.4113 19.5639C11.1154 19.9222 10.963 20.3776 10.9838 20.8418C11.0046 21.3061 11.197 21.746 11.5238 22.0764V22.0877ZM11.835 20.2764L11.9025 20.3252C11.9386 20.3596 11.9775 20.3909 12.0188 20.4189C12.0924 20.4693 12.1702 20.5132 12.2513 20.5502L13.7513 21.1952C13.818 21.2245 13.887 21.2483 13.9575 21.2664L13.6538 21.5664C13.6061 21.6119 13.5547 21.6533 13.5 21.6902L13.4475 21.7239L13.3238 21.7877L13.2563 21.8177L13.1138 21.8589H13.005H12.945C12.8005 21.8672 12.6557 21.8494 12.5175 21.8064C12.3522 21.7538 12.2018 21.6625 12.0788 21.5402C11.9136 21.3757 11.8035 21.1639 11.7639 20.9342C11.7243 20.7044 11.757 20.468 11.8575 20.2577L11.835 20.2764ZM21.915 17.7002C22.2788 18.0414 22.5189 18.4939 22.5975 18.9864L23.0213 21.6114C23.0356 21.6995 23.0444 21.7885 23.0475 21.8777C23.0594 22.1871 23.0079 22.4957 22.8964 22.7846C22.7848 23.0734 22.6155 23.3365 22.3988 23.5577L22.3725 23.5839L19.9125 26.6252C19.3994 27.2625 19.1214 28.057 19.125 28.8752C19.125 28.9746 19.0855 29.07 19.0152 29.1403C18.9449 29.2107 18.8495 29.2502 18.75 29.2502H14.25C14.1506 29.2502 14.0552 29.2107 13.9849 29.1403C13.9145 29.07 13.875 28.9746 13.875 28.8752V27.5477C13.8681 26.9435 13.7406 26.3469 13.5 25.7927C13.0963 24.7826 12.8509 23.7163 12.7725 22.6314H12.8363C12.9142 22.6295 12.9919 22.622 13.0688 22.6089C13.1 22.6108 13.1313 22.6108 13.1625 22.6089C13.2519 22.5927 13.3397 22.5688 13.425 22.5377L13.5188 22.5114C13.6133 22.472 13.7048 22.4256 13.7925 22.3727L13.8525 22.3427C13.9587 22.2737 14.0579 22.1946 14.1488 22.1064L16.2525 20.0402C16.4947 19.9743 16.7148 19.8448 16.89 19.6652L16.9125 19.6464C16.9676 19.5898 17.019 19.5297 17.0663 19.4664C17.1886 19.2991 17.2731 19.1072 17.3138 18.9039C17.4309 18.9059 17.5479 18.8946 17.6625 18.8702C17.9346 19.1365 18.2625 19.3389 18.6225 19.4627L19.515 19.8039C19.6147 19.8388 19.7026 19.9008 19.7688 19.9829C19.8351 20.0651 19.8771 20.1642 19.89 20.2689C19.904 20.3975 19.8747 20.527 19.8068 20.637C19.7389 20.7471 19.6362 20.8313 19.515 20.8764C17.505 21.6264 16.3688 22.9164 16.14 24.6977C16.1249 24.7956 16.1492 24.8955 16.2075 24.9756C16.2658 25.0557 16.3535 25.1095 16.4513 25.1252H16.5C16.5916 25.1259 16.6803 25.0932 16.7494 25.0331C16.8184 24.973 16.8631 24.8897 16.875 24.7989C17.0775 23.2989 18.0263 22.2414 19.7775 21.5852C20.0542 21.4783 20.2875 21.2826 20.4409 21.0287C20.5943 20.7749 20.6591 20.4773 20.625 20.1827C20.595 19.9481 20.5021 19.726 20.3562 19.5398C20.2104 19.3537 20.0169 19.2104 19.7963 19.1252L18.8925 18.7502C18.5669 18.6367 18.2788 18.4355 18.06 18.1689C18.0121 18.1116 17.9694 18.0501 17.9325 17.9852C17.91 17.9514 17.8875 17.9177 17.8688 17.8839C17.8285 17.8141 17.7934 17.7414 17.7638 17.6664C17.745 17.6177 17.7263 17.5689 17.7113 17.5164C17.6963 17.4639 17.685 17.4227 17.6738 17.3777C17.6625 17.3327 17.655 17.2652 17.6475 17.2089C17.6438 17.1602 17.6438 17.1114 17.6475 17.0627C17.6457 17.0477 17.6457 17.0326 17.6475 17.0177C17.6419 16.949 17.6419 16.8801 17.6475 16.8114C17.6457 16.7865 17.6457 16.7614 17.6475 16.7364C17.6455 16.7165 17.6455 16.6964 17.6475 16.6764C17.6623 16.5721 17.6862 16.4692 17.7188 16.3689C17.7505 16.276 17.8173 16.1993 17.9049 16.1551C17.9926 16.1109 18.094 16.1029 18.1875 16.1327L21.1575 17.2502C21.4366 17.3501 21.6938 17.5029 21.915 17.7002ZM20.7638 11.3927C20.8953 11.2605 20.9919 11.0978 21.0449 10.9191C21.0979 10.7404 21.1057 10.5514 21.0675 10.3689C20.9688 9.91675 20.9791 9.44758 21.0975 9.00017C21.2233 8.50376 21.475 8.04823 21.8285 7.67769C22.182 7.30715 22.6251 7.03417 23.115 6.88517C23.5064 6.76276 23.9191 6.72442 24.3263 6.77267L23.28 7.83767C23.1752 7.94219 23.0919 8.06638 23.0352 8.20312C22.9784 8.33987 22.9492 8.48648 22.9492 8.63455C22.9492 8.78261 22.9784 8.92922 23.0352 9.06597C23.0919 9.20271 23.1752 9.3269 23.28 9.43142L24.3413 10.5002C24.5561 10.7049 24.8414 10.8191 25.1382 10.8191C25.4349 10.8191 25.7202 10.7049 25.935 10.5002L27 9.41642C27.0441 9.81967 27.0071 10.2277 26.8913 10.6164C26.7438 11.1135 26.4684 11.5632 26.0927 11.9206C25.7169 12.2779 25.2539 12.5303 24.75 12.6527C24.2991 12.7731 23.8258 12.7833 23.37 12.6827C23.187 12.6439 22.9972 12.6513 22.8178 12.7044C22.6384 12.7574 22.475 12.8543 22.3425 12.9864L19.68 15.6114V15.5889C19.6471 15.4905 19.6031 15.3961 19.5488 15.3077L18.4875 13.6539L20.7638 11.3927ZM16.4738 13.2677C16.557 13.215 16.6498 13.1792 16.7469 13.1623C16.8439 13.1455 16.9433 13.1479 17.0394 13.1695C17.1356 13.1911 17.2265 13.2314 17.307 13.2882C17.3875 13.3449 17.4561 13.4169 17.5088 13.5002L17.6925 13.7889L18.8175 15.5664L18.4425 15.4277C18.3029 15.379 18.155 15.3589 18.0074 15.3685C17.8599 15.3782 17.7158 15.4174 17.5838 15.4839C17.5475 15.503 17.5124 15.5242 17.4788 15.5477L16.1475 14.0664C16.1147 13.917 16.1284 13.7611 16.1867 13.6197C16.245 13.4783 16.3452 13.358 16.4738 13.2752V13.2677ZM14.4713 14.5014C14.5411 14.4306 14.6243 14.3743 14.716 14.3359C14.8077 14.2975 14.9062 14.2777 15.0057 14.2777C15.1051 14.2777 15.2036 14.2975 15.2953 14.3359C15.3871 14.3743 15.4703 14.4306 15.54 14.5014L17.01 16.1402C16.9913 16.2002 16.9763 16.2602 16.9575 16.3239C16.8107 16.9037 16.8663 17.5163 17.115 18.0602L15.0713 16.1514L14.4713 15.5514C14.3316 15.4109 14.2532 15.2208 14.2532 15.0227C14.2532 14.8245 14.3316 14.6344 14.4713 14.4939V14.5014ZM13.125 16.6127C13.2415 16.4517 13.4171 16.3435 13.6133 16.3119C13.8094 16.2802 14.0101 16.3277 14.1713 16.4439L14.5463 16.7289L16.59 18.6302C16.5786 18.7654 16.5306 18.895 16.4513 19.0052C16.4268 19.0389 16.3991 19.0703 16.3688 19.0989C16.2633 19.1931 16.1333 19.2555 15.9938 19.2789C15.8586 19.3064 15.7185 19.296 15.5888 19.2489L13.56 17.8239L13.2788 17.6177C13.1316 17.5001 13.0341 17.3314 13.0056 17.1452C12.9771 16.959 13.0198 16.7689 13.125 16.6127ZM12.1538 18.8627C12.2123 18.7285 12.3089 18.6144 12.4315 18.5345C12.5541 18.4545 12.6974 18.4122 12.8438 18.4127C12.9468 18.4118 13.049 18.4323 13.1438 18.4727H13.1738L15.0713 19.8039C15.0718 19.9029 15.0527 20.0011 15.015 20.0927C14.9823 20.1861 14.9308 20.2719 14.8638 20.3448C14.7967 20.4176 14.7155 20.476 14.625 20.5164C14.4413 20.5925 14.235 20.5925 14.0513 20.5164L12.5513 19.8677C12.5076 19.8484 12.4661 19.8246 12.4275 19.7964C12.3325 19.7207 12.2556 19.6245 12.2025 19.5152L12.18 19.4739C12.1358 19.3806 12.1112 19.2791 12.108 19.1759C12.1048 19.0726 12.1229 18.9698 12.1613 18.8739L12.1538 18.8627Z" fill="#343A40"/>
<path d="M15.5815 10.4177C15.5605 10.4626 15.5577 10.5139 15.5738 10.5607C15.5899 10.6076 15.6236 10.6464 15.6677 10.669L16.4177 11.044C16.4436 11.0559 16.4717 11.0623 16.5002 11.0627C16.5427 11.0629 16.584 11.0486 16.6173 11.0222C16.6507 10.9958 16.6741 10.9589 16.6836 10.9175C16.6932 10.8761 16.6885 10.8327 16.6701 10.7943C16.6518 10.756 16.621 10.725 16.5827 10.7065L15.8327 10.3315C15.7878 10.3105 15.7365 10.3077 15.6897 10.3238C15.6428 10.3399 15.604 10.3736 15.5815 10.4177Z" fill="#343A40"/>
<path d="M16.8751 9.93757C16.8997 9.93787 16.924 9.93302 16.9466 9.92333C16.9692 9.91364 16.9896 9.89933 17.0063 9.88132C17.0243 9.86448 17.0386 9.84415 17.0483 9.82158C17.0581 9.799 17.0631 9.77467 17.0631 9.75007C17.0631 9.72547 17.0581 9.70113 17.0483 9.67856C17.0386 9.65598 17.0243 9.63565 17.0063 9.61882L16.2563 8.86882C16.2215 8.83401 16.1743 8.81445 16.1251 8.81445C16.0758 8.81445 16.0286 8.83401 15.9938 8.86882C15.959 8.90363 15.9395 8.95084 15.9395 9.00007C15.9395 9.0493 15.959 9.09651 15.9938 9.13132L16.7438 9.88132C16.7606 9.89933 16.7809 9.91364 16.8035 9.92333C16.8261 9.93302 16.8505 9.93787 16.8751 9.93757Z" fill="#343A40"/>
<path d="M18.1875 9.75V9.375C18.1875 9.32527 18.1677 9.27758 18.1326 9.24242C18.0974 9.20725 18.0497 9.1875 18 9.1875C17.9503 9.1875 17.9026 9.20725 17.8674 9.24242C17.8323 9.27758 17.8125 9.32527 17.8125 9.375V9.75C17.8125 9.79973 17.8323 9.84742 17.8674 9.88258C17.9026 9.91775 17.9503 9.9375 18 9.9375C18.0497 9.9375 18.0974 9.91775 18.1326 9.88258C18.1677 9.84742 18.1875 9.79973 18.1875 9.75Z" fill="#343A40"/>
</g>
<defs>
<clipPath id="clip0_0_4810">
<rect width="24" height="24" fill="white" transform="translate(6 6)"/>
</clipPath>
</defs>
</svg>
