<svg width="28" height="28" viewBox="0 0 28 28" fill="none" xmlns="http://www.w3.org/2000/svg">
<g clip-path="url(#clip0_0_871)">
<path fill-rule="evenodd" clip-rule="evenodd" d="M13.2617 0.0273341C15.8447 -0.094274 18.2692 0.452601 20.5352 1.66796C16.1276 1.72248 11.7161 1.74071 7.30078 1.72265C9.14687 0.682195 11.1338 0.11709 13.2617 0.0273341Z" fill="#F3A23A"/>
<path fill-rule="evenodd" clip-rule="evenodd" d="M20.5352 1.66797C21.8675 2.36193 23.0524 3.25516 24.0898 4.34766C24.001 4.35531 23.9373 4.31885 23.8984 4.23828C23.8802 4.27474 23.862 4.3112 23.8438 4.34766C23.8073 4.27474 23.7709 4.20182 23.7344 4.12891C23.6979 4.27474 23.6615 4.27474 23.625 4.12891C23.5982 4.19963 23.5891 4.27255 23.5977 4.34766C17.1367 4.38386 10.6836 4.3474 4.23828 4.23828C4.1729 4.25719 4.1729 4.28453 4.23828 4.32031C4.11196 4.34747 3.98436 4.35659 3.85547 4.34766C4.85596 3.27377 6.00441 2.39877 7.30078 1.72266C11.7161 1.74072 16.1276 1.72249 20.5352 1.66797Z" fill="#F2A035"/>
<path fill-rule="evenodd" clip-rule="evenodd" d="M24.0898 4.34766C24.7201 5.00664 25.2853 5.71758 25.7852 6.48047C25.5064 6.51153 25.2148 6.5298 24.9102 6.53516C24.9102 6.3893 24.9102 6.24351 24.9102 6.09766C24.7643 6.09766 24.6185 6.09766 24.4727 6.09766C24.4727 6.24351 24.4727 6.3893 24.4727 6.53516C17.0802 6.53882 9.68833 6.5753 2.29688 6.64453C2.25814 6.59635 2.21257 6.55993 2.16016 6.53516C2.64162 5.7435 3.20672 5.01431 3.85547 4.34766C3.98436 4.35659 4.11196 4.34747 4.23828 4.32031C4.1729 4.28453 4.1729 4.25719 4.23828 4.23828C10.6836 4.3474 17.1367 4.38386 23.5977 4.34766C23.5891 4.27255 23.5982 4.19963 23.625 4.12891C23.6615 4.27474 23.6979 4.27474 23.7344 4.12891C23.7709 4.20182 23.8073 4.27474 23.8438 4.34766C23.862 4.3112 23.8802 4.27474 23.8984 4.23828C23.9373 4.31885 24.001 4.35531 24.0898 4.34766Z" fill="#F29D2E"/>
<path fill-rule="evenodd" clip-rule="evenodd" d="M25.7852 6.48047C26.0689 6.93848 26.3241 7.41245 26.5508 7.90234C26.0084 7.84908 25.4615 7.83087 24.9102 7.84766C24.9102 7.7018 24.9102 7.55601 24.9102 7.41016C24.7643 7.41016 24.6185 7.41016 24.4727 7.41016C24.4727 7.55601 24.4727 7.7018 24.4727 7.84766C23.306 7.84766 22.1393 7.84766 20.9727 7.84766C20.9727 7.7018 20.9727 7.55601 20.9727 7.41016C20.8268 7.41016 20.681 7.41016 20.5352 7.41016C20.5441 7.53905 20.535 7.66664 20.5078 7.79297C20.4495 7.83076 20.3856 7.8581 20.3164 7.875C20.5358 8.07663 20.7728 8.10398 21.0273 7.95703C21.16 8.03359 21.1418 8.09736 20.9727 8.14844C21.1715 8.18267 21.1715 8.24649 20.9727 8.33984C21.0345 8.4012 21.0709 8.47416 21.082 8.55859C20.8407 8.3533 20.5856 8.17102 20.3164 8.01172C20.2577 7.93598 20.1848 7.87221 20.0977 7.82031C19.7279 7.73079 19.3633 7.62141 19.0039 7.49219C18.8592 7.46501 18.7134 7.45588 18.5664 7.46484C18.2889 7.37991 17.9972 7.31615 17.6914 7.27344C17.1445 7.2643 16.5977 7.25523 16.0508 7.24609C15.4844 7.24615 14.9376 7.28262 14.4102 7.35547C14.3559 7.34606 14.3195 7.36433 14.3008 7.41016C14.0638 7.41016 13.8268 7.41016 13.5898 7.41016C13.207 7.43329 12.8242 7.46063 12.4414 7.49219C12.411 7.51313 12.3928 7.54048 12.3867 7.57422C11.8088 7.65286 11.2437 7.76223 10.6914 7.90234C10.6732 7.90234 10.6549 7.90234 10.6367 7.90234C10.3526 7.93729 10.0791 7.99198 9.81641 8.06641C9.79819 8.06641 9.77993 8.06641 9.76172 8.06641C9.51081 8.13482 9.25559 8.18951 8.99609 8.23047C9.15119 8.1515 9.31525 8.0786 9.48828 8.01172C9.42457 7.95244 9.35167 7.90688 9.26953 7.875C9.37743 7.84793 9.4868 7.8388 9.59766 7.84766C9.59766 7.7018 9.59766 7.55601 9.59766 7.41016C9.4518 7.41016 9.30601 7.41016 9.16016 7.41016C9.16913 7.5571 9.15999 7.70295 9.13281 7.84766C9.1146 7.82945 9.09634 7.81118 9.07812 7.79297C9.02349 7.99734 8.95059 7.99734 8.85938 7.79297C6.64535 7.84673 4.41229 7.86494 2.16016 7.84766C2.16016 7.7018 2.16016 7.55601 2.16016 7.41016C1.96421 7.3955 1.78192 7.43198 1.61328 7.51953C1.76717 7.17527 1.94946 6.84715 2.16016 6.53516C2.21257 6.55993 2.25814 6.59635 2.29688 6.64453C9.68833 6.5753 17.0802 6.53882 24.4727 6.53516C24.4727 6.3893 24.4727 6.24351 24.4727 6.09766C24.6185 6.09766 24.7643 6.09766 24.9102 6.09766C24.9102 6.24351 24.9102 6.3893 24.9102 6.53516C25.2148 6.5298 25.5064 6.51153 25.7852 6.48047Z" fill="#F19B28"/>
<path fill-rule="evenodd" clip-rule="evenodd" d="M18.5664 7.46484C18.1916 7.45199 17.827 7.41552 17.4727 7.35547C16.4603 7.28744 15.4395 7.28744 14.4102 7.35547C14.9376 7.28262 15.4844 7.24615 16.0508 7.24609C16.5977 7.25523 17.1445 7.2643 17.6914 7.27344C17.9972 7.31615 18.2889 7.37991 18.5664 7.46484Z" fill="#E89C36"/>
<path fill-rule="evenodd" clip-rule="evenodd" d="M17.4727 7.35547C16.4146 7.34486 15.3573 7.36307 14.3008 7.41015C14.3195 7.36433 14.3559 7.34606 14.4102 7.35547C15.4395 7.28744 16.4603 7.28744 17.4727 7.35547Z" fill="#DDA657"/>
<path fill-rule="evenodd" clip-rule="evenodd" d="M17.4727 7.35547C17.827 7.41551 18.1916 7.45199 18.5664 7.46484C18.8015 7.49301 19.0203 7.56591 19.2227 7.68359C18.8279 7.5956 18.4268 7.53184 18.0195 7.49219C16.6706 7.45571 15.3216 7.45571 13.9727 7.49219C12.8802 7.61031 11.7864 7.74703 10.6914 7.90234C11.2438 7.76223 11.8088 7.65286 12.3867 7.57422C12.7992 7.54934 13.2002 7.49465 13.5898 7.41016C13.8268 7.41016 14.0638 7.41016 14.3008 7.41016C15.3573 7.36307 16.4146 7.34486 17.4727 7.35547Z" fill="#FDF3D4"/>
<path fill-rule="evenodd" clip-rule="evenodd" d="M13.5898 7.41016C13.2002 7.49465 12.7992 7.54934 12.3867 7.57422C12.3928 7.54048 12.411 7.51313 12.4414 7.49219C12.8242 7.46063 13.207 7.43329 13.5898 7.41016Z" fill="#E2A24A"/>
<path fill-rule="evenodd" clip-rule="evenodd" d="M19.2228 7.68361C19.5977 7.76001 19.9623 7.86938 20.3165 8.01173C20.5857 8.17104 20.8409 8.35331 21.0822 8.55861C21.2139 8.68997 21.3233 8.83582 21.4103 8.99611C21.536 9.36574 21.5907 9.74855 21.5744 10.1445C21.5744 10.181 21.5744 10.2174 21.5744 10.2539C21.4567 10.3898 21.3108 10.4809 21.1369 10.5274C21.1004 10.5274 21.064 10.5274 21.0275 10.5274C20.5815 10.5864 20.144 10.6593 19.715 10.7461C17.5173 10.9015 15.3116 11.02 13.0978 11.1016C12.9832 11.1419 12.892 11.2056 12.8244 11.293C12.6818 11.3593 12.5906 11.4686 12.5509 11.6211C12.5327 11.6211 12.5144 11.6211 12.4962 11.6211C12.4128 11.7277 12.3581 11.8553 12.3322 12.0039C12.2601 12.377 12.2601 12.7416 12.3322 13.0977C12.3504 13.0977 12.3686 13.0977 12.3869 13.0977C12.4051 13.1341 12.4233 13.1706 12.4415 13.207C12.5307 13.3242 12.6401 13.4154 12.7697 13.4805C13.1507 13.5533 13.5518 13.5897 13.9728 13.5899C14.3938 13.5897 14.7949 13.5533 15.1759 13.4805C15.2302 13.4899 15.2666 13.4716 15.2853 13.4258C15.4311 13.4258 15.5769 13.4258 15.7228 13.4258C15.9788 13.4166 16.234 13.3983 16.4884 13.3711C18.0179 13.282 19.5492 13.2455 21.0822 13.2617C21.5063 13.2594 21.9074 13.3505 22.2853 13.5352C22.4052 13.6366 22.4781 13.7643 22.504 13.918C22.4528 14.1628 22.3799 14.3998 22.2853 14.6289C21.9353 15.2147 21.4248 15.5975 20.754 15.7774C20.6432 15.7685 20.5338 15.7776 20.4259 15.8047C20.1659 15.9215 19.9107 16.0217 19.6603 16.1055C19.0581 16.1371 18.4566 16.1828 17.8556 16.2422C17.8252 16.2631 17.807 16.2905 17.8009 16.3242C17.7827 16.3242 17.7644 16.3242 17.7462 16.3242C16.2807 16.4841 14.8041 16.6025 13.3165 16.6797C13.2313 16.6912 13.1584 16.7185 13.0978 16.7617C13.0104 16.7471 12.9375 16.7653 12.879 16.8164C12.8426 16.8164 12.8061 16.8164 12.7697 16.8164C12.4867 16.804 12.2132 16.8495 11.9494 16.9531C11.8335 17.0105 11.7424 17.0925 11.6759 17.1992C11.5194 17.3664 11.4192 17.567 11.3751 17.8008C11.3119 18.035 11.2663 18.272 11.2384 18.5117C11.2384 18.5482 11.2202 18.5664 11.1837 18.5664C11.15 18.5725 11.1226 18.5907 11.1017 18.6211C11.0056 19.1192 10.9054 19.6114 10.8009 20.0977C10.6678 20.5098 10.4764 20.8926 10.2267 21.2461C10.1115 21.3893 9.97481 21.4987 9.81655 21.5742C9.60491 21.6453 9.38616 21.6817 9.1603 21.6836C8.97802 21.6107 8.85038 21.4831 8.77748 21.3008C8.78361 20.9355 8.80188 20.5709 8.83217 20.207C8.95615 19.879 9.02905 19.5326 9.05092 19.168C9.10545 18.7503 9.12371 18.331 9.10561 17.9102C9.12327 17.5535 9.10506 17.2072 9.05092 16.8711C8.97201 16.5744 8.82616 16.3193 8.61342 16.1055C8.47796 15.8715 8.34124 15.6345 8.20327 15.3945C8.11423 15.0969 8.1051 14.8052 8.17592 14.5195C8.47709 14.3422 8.80521 14.242 9.1603 14.2188C9.22899 14.196 9.26546 14.1504 9.26967 14.082C9.42663 14.031 9.55427 13.9399 9.65248 13.8086C9.72538 13.7721 9.78007 13.7174 9.81655 13.6445C9.86894 13.6198 9.91455 13.5833 9.95327 13.5352C10.0841 13.2219 10.1206 12.8938 10.0626 12.5508C10.0474 12.5007 10.0201 12.4643 9.98061 12.4414C9.98061 12.4232 9.98061 12.4049 9.98061 12.3867C9.9467 12.1346 9.80085 12.0252 9.54311 12.0586C9.45195 12.0677 9.36084 12.0768 9.26967 12.086C9.08904 12.1439 8.92498 12.2259 8.77748 12.332C8.73871 12.3815 8.68402 12.3997 8.61342 12.3867C8.06173 12.4532 7.51486 12.4168 6.9728 12.2774C6.73923 12.1351 6.53874 11.9528 6.37123 11.7305C6.33634 11.6233 6.33634 11.5231 6.37123 11.4297C6.28816 11.3631 6.22434 11.2811 6.17983 11.1836C6.09813 10.9114 6.02523 10.638 5.96108 10.3633C5.94462 10.1988 5.9537 10.0348 5.98842 9.87111C6.01987 9.7666 6.07456 9.67544 6.15248 9.59767C6.54613 9.31871 6.96541 9.08175 7.4103 8.88673C7.89023 8.77796 8.34595 8.60476 8.77748 8.3672C9.08888 8.32126 9.39879 8.26658 9.70717 8.20314C9.7483 8.16644 9.76656 8.12089 9.76186 8.06642C9.78007 8.06642 9.79834 8.06642 9.81655 8.06642C10.0278 8.0685 10.2374 8.05029 10.4455 8.01173C10.5374 8.00583 10.6012 7.96935 10.6369 7.90236C10.6551 7.90236 10.6733 7.90236 10.6915 7.90236C11.7866 7.74704 12.8803 7.61033 13.9728 7.4922C15.3218 7.45572 16.6707 7.45572 18.0197 7.4922C18.427 7.53185 18.828 7.59562 19.2228 7.68361Z" fill="#FEFEFE"/>
<path fill-rule="evenodd" clip-rule="evenodd" d="M18.5664 7.46482C18.7134 7.45585 18.8592 7.46498 19.0039 7.49216C19.3633 7.62139 19.7279 7.73077 20.0977 7.82029C20.1848 7.87219 20.2577 7.93595 20.3164 8.0117C19.9622 7.86934 19.5976 7.75997 19.2227 7.68357C19.0203 7.56588 18.8015 7.49298 18.5664 7.46482Z" fill="#E7A854"/>
<path fill-rule="evenodd" clip-rule="evenodd" d="M8.99609 8.23045C8.44648 8.40731 7.91782 8.62606 7.41016 8.8867C6.96527 9.08171 6.54598 9.31867 6.15234 9.59763C6.14026 9.53009 6.10378 9.47541 6.04297 9.43357C6.12445 9.36106 6.19741 9.27902 6.26172 9.18748C6.22393 9.12913 6.19659 9.06531 6.17969 8.99607C6.14184 9.02478 6.1145 9.06126 6.09766 9.10545C4.36627 9.16013 2.6345 9.17834 0.902344 9.16013C0.873835 9.41098 0.782688 9.62973 0.628906 9.81638C0.868804 9.00892 1.19693 8.2433 1.61328 7.51951C1.78192 7.43195 1.96421 7.39548 2.16016 7.41013C2.16016 7.55598 2.16016 7.70178 2.16016 7.84763C4.41229 7.86491 6.64535 7.8467 8.85938 7.79295C8.95059 7.99731 9.02349 7.99731 9.07812 7.79295C9.09634 7.81116 9.1146 7.82942 9.13281 7.84763C9.15999 7.70293 9.16912 7.55708 9.16016 7.41013C9.30601 7.41013 9.45181 7.41013 9.59766 7.41013C9.59766 7.55598 9.59766 7.70178 9.59766 7.84763C9.4868 7.83877 9.37743 7.84791 9.26953 7.87498C9.35167 7.90686 9.42457 7.95241 9.48828 8.0117C9.31525 8.07858 9.15119 8.15148 8.99609 8.23045Z" fill="#F09A24"/>
<path fill-rule="evenodd" clip-rule="evenodd" d="M26.5508 7.90234C26.7929 8.35428 26.9934 8.8282 27.1523 9.32422C27.0989 9.30721 27.0624 9.27073 27.043 9.21484C25.2849 9.19576 23.5349 9.14107 21.793 9.05078C21.756 9.11105 21.7196 9.16573 21.6836 9.21484C21.601 9.11548 21.5281 9.0061 21.4648 8.88672C21.4763 8.85467 21.4945 8.82733 21.5195 8.80469C21.4385 8.75109 21.3656 8.68727 21.3008 8.61328C21.2358 8.56248 21.1629 8.54427 21.082 8.55859C21.0709 8.47416 21.0345 8.4012 20.9727 8.33984C21.1715 8.24649 21.1715 8.18267 20.9727 8.14844C21.1417 8.09736 21.16 8.03359 21.0273 7.95703C20.7728 8.10398 20.5358 8.07663 20.3164 7.875C20.3856 7.8581 20.4495 7.83076 20.5078 7.79297C20.535 7.66664 20.5441 7.53905 20.5352 7.41016C20.681 7.41016 20.8268 7.41016 20.9727 7.41016C20.9727 7.55601 20.9727 7.7018 20.9727 7.84766C22.1393 7.84766 23.306 7.84766 24.4727 7.84766C24.4727 7.7018 24.4727 7.55601 24.4727 7.41016C24.6185 7.41016 24.7643 7.41016 24.9102 7.41016C24.9102 7.55601 24.9102 7.7018 24.9102 7.84766C25.4615 7.83087 26.0084 7.84908 26.5508 7.90234Z" fill="#F19923"/>
<path fill-rule="evenodd" clip-rule="evenodd" d="M10.6367 7.90234C10.6011 7.96934 10.5372 8.00581 10.4453 8.01172C10.2373 8.05027 10.0277 8.06848 9.81641 8.06641C10.0791 7.99198 10.3526 7.93729 10.6367 7.90234Z" fill="#FDF0CB"/>
<path fill-rule="evenodd" clip-rule="evenodd" d="M9.76172 8.06641C9.76642 8.12088 9.74816 8.16643 9.70703 8.20312C9.39865 8.26656 9.08873 8.32125 8.77734 8.36719C8.3458 8.60475 7.89009 8.77795 7.41016 8.88672C7.91782 8.62608 8.44648 8.40733 8.99609 8.23047C9.25559 8.18951 9.51081 8.13482 9.76172 8.06641Z" fill="#FEF6DE"/>
<path fill-rule="evenodd" clip-rule="evenodd" d="M6.15234 9.59766C6.07441 9.67542 6.01973 9.76659 5.98828 9.87109C5.9121 9.98107 5.87563 10.1087 5.87891 10.2539C5.92933 10.6484 6.02049 11.0312 6.15234 11.4023C6.0766 11.3436 6.01284 11.2707 5.96094 11.1836C5.90384 11.245 5.86742 11.3179 5.85156 11.4023C5.81509 11.3294 5.77866 11.3294 5.74219 11.4023C5.70593 11.2576 5.67859 11.0936 5.66016 10.9102C5.71484 10.9102 5.76953 10.9102 5.82422 10.9102C5.84522 10.7918 5.80874 10.7006 5.71484 10.6367C5.22266 10.6732 4.73047 10.7096 4.23828 10.7461C4.13611 10.7217 4.03586 10.7035 3.9375 10.6914C3.87295 10.7562 3.79092 10.7926 3.69141 10.8008C3.46679 10.7454 3.23892 10.709 3.00781 10.6914C2.71786 10.7255 2.44442 10.7255 2.1875 10.6914C2.12295 10.7562 2.04092 10.7926 1.94141 10.8008C1.58231 10.7103 1.21773 10.6739 0.847656 10.6914C0.847656 10.7643 0.847656 10.8373 0.847656 10.9102C0.701821 10.9102 0.555991 10.9102 0.410156 10.9102C0.430931 11.0304 0.394472 11.1215 0.300781 11.1836C0.401352 10.7266 0.510727 10.2709 0.628906 9.81641C0.782688 9.62976 0.873835 9.41101 0.902344 9.16016C2.6345 9.17837 4.36627 9.16016 6.09766 9.10547C6.1145 9.06128 6.14184 9.0248 6.17969 8.99609C6.19659 9.06533 6.22393 9.12915 6.26172 9.1875C6.19741 9.27905 6.12445 9.36108 6.04297 9.43359C6.10378 9.47543 6.14026 9.53012 6.15234 9.59766Z" fill="#F1971D"/>
<path fill-rule="evenodd" clip-rule="evenodd" d="M27.1523 9.32422C27.4025 9.96029 27.5848 10.6165 27.6992 11.293C27.6281 11.1266 27.5461 10.9625 27.4531 10.8008C27.3978 10.8222 27.3705 10.8587 27.3711 10.9102C27.339 10.8987 27.3117 10.8805 27.2891 10.8555C26.7889 10.9024 26.2876 10.9571 25.7852 11.0195C25.7852 10.9466 25.7852 10.8737 25.7852 10.8008C25.2018 10.8737 24.6185 10.9466 24.0352 11.0195C24.0352 10.9466 24.0352 10.8737 24.0352 10.8008C23.3091 10.9099 22.5799 10.9281 21.8477 10.8555C21.8591 10.8234 21.8774 10.7961 21.9023 10.7734C21.7511 10.7356 21.7146 10.6536 21.793 10.5273C21.6948 10.4923 21.6127 10.4376 21.5469 10.3633C21.5205 10.4151 21.5114 10.4698 21.5195 10.5273C21.4466 10.5273 21.3737 10.5273 21.3008 10.5273C21.3297 10.6971 21.275 10.8247 21.1367 10.9102C21.0912 10.8555 21.0456 10.8008 21 10.7461C20.8466 10.9355 20.6735 10.9538 20.4805 10.8008C20.0001 10.8411 19.5262 10.8958 19.0586 10.9648C19.2307 10.935 19.3948 10.8803 19.5508 10.8008C19.6055 10.8008 19.6602 10.8008 19.7148 10.8008C20.0805 10.7915 20.4451 10.7642 20.8086 10.7188C20.9387 10.6796 21.0481 10.6158 21.1367 10.5273C21.3107 10.4809 21.4565 10.3898 21.5742 10.2539C21.6603 10.23 21.7241 10.1753 21.7656 10.0898C21.8021 9.8893 21.8021 9.68882 21.7656 9.48828C21.6962 9.41145 21.6689 9.32034 21.6836 9.21484C21.7196 9.16573 21.756 9.11105 21.793 9.05078C23.5349 9.14107 25.2849 9.19576 27.043 9.21484C27.0624 9.27073 27.0989 9.30721 27.1523 9.32422Z" fill="#F1971C"/>
<path fill-rule="evenodd" clip-rule="evenodd" d="M21.4102 8.99609C21.6528 9.29731 21.7348 9.6437 21.6562 10.0352C21.641 10.0853 21.6137 10.1217 21.5742 10.1445C21.5906 9.74854 21.5359 9.36573 21.4102 8.99609Z" fill="#FEF2D2"/>
<path fill-rule="evenodd" clip-rule="evenodd" d="M21.082 8.55856C21.1629 8.54424 21.2358 8.56245 21.3008 8.61325C21.3656 8.68724 21.4385 8.75106 21.5195 8.80466C21.4945 8.8273 21.4763 8.85464 21.4648 8.88669C21.5281 9.00607 21.601 9.11545 21.6836 9.21481C21.6689 9.32031 21.6962 9.41142 21.7656 9.48825C21.8021 9.68879 21.8021 9.88928 21.7656 10.0898C21.7241 10.1753 21.6603 10.23 21.5742 10.2539C21.5742 10.2174 21.5742 10.181 21.5742 10.1445C21.6137 10.1216 21.641 10.0852 21.6562 10.0351C21.7348 9.64367 21.6528 9.29728 21.4102 8.99606C21.3231 8.83578 21.2138 8.68992 21.082 8.55856Z" fill="#E79D3A"/>
<path fill-rule="evenodd" clip-rule="evenodd" d="M5.98848 9.87109C5.95376 10.0348 5.94468 10.1988 5.96114 10.3633C6.02529 10.638 6.09819 10.9114 6.17989 11.1836C6.22441 11.281 6.28823 11.3631 6.3713 11.4297C6.33641 11.523 6.33641 11.6233 6.3713 11.7305C6.2984 11.6211 6.22545 11.5117 6.15255 11.4023C6.0207 11.0312 5.92953 10.6484 5.87911 10.2539C5.87583 10.1087 5.9123 9.98107 5.98848 9.87109Z" fill="#FEF6DD"/>
<path fill-rule="evenodd" clip-rule="evenodd" d="M21.0273 10.5273C20.6142 10.6752 20.1767 10.7481 19.7148 10.7461C20.1438 10.6593 20.5813 10.5864 21.0273 10.5273Z" fill="#FDF7DC"/>
<path fill-rule="evenodd" clip-rule="evenodd" d="M21.0273 10.5273C21.0638 10.5273 21.1002 10.5273 21.1367 10.5273C21.0481 10.6158 20.9387 10.6796 20.8086 10.7188C20.4451 10.7642 20.0805 10.7915 19.7148 10.8008C19.7148 10.7826 19.7148 10.7643 19.7148 10.7461C20.1767 10.7481 20.6142 10.6752 21.0273 10.5273Z" fill="#E5A34E"/>
<path fill-rule="evenodd" clip-rule="evenodd" d="M27.6992 11.293C27.7458 11.5278 27.7822 11.7648 27.8086 12.0039C27.6818 11.9171 27.6454 11.8077 27.6992 11.6758C27.6917 11.5879 27.6552 11.5149 27.5898 11.457C27.5572 11.5686 27.5572 11.6689 27.5898 11.7578C22.733 11.749 17.8841 11.7946 13.043 11.8945C12.9312 11.8011 12.8401 11.6918 12.7695 11.5664C12.5893 11.6898 12.5528 11.8538 12.6602 12.0586C12.5496 12.2158 12.4584 12.3799 12.3867 12.5508C12.4483 12.2428 12.503 11.9329 12.5508 11.6211C12.5905 11.4686 12.6816 11.3593 12.8242 11.293C12.8424 11.293 12.8607 11.293 12.8789 11.293C14.0028 11.2445 15.1148 11.1534 16.2148 11.0195C16.4701 11.0195 16.7252 11.0195 16.9805 11.0195C17.6734 11.0082 18.3661 10.99 19.0586 10.9648C19.5262 10.8958 20.0001 10.8411 20.4805 10.8008C20.6735 10.9538 20.8466 10.9355 21 10.7461C21.0456 10.8008 21.0912 10.8555 21.1367 10.9102C21.275 10.8247 21.3297 10.6971 21.3008 10.5273C21.3737 10.5273 21.4466 10.5273 21.5195 10.5273C21.5114 10.4698 21.5205 10.4151 21.5469 10.3633C21.6127 10.4376 21.6947 10.4923 21.793 10.5273C21.7146 10.6536 21.7511 10.7356 21.9023 10.7734C21.8774 10.7961 21.8591 10.8234 21.8477 10.8555C22.5799 10.9281 23.3091 10.9099 24.0352 10.8008C24.0352 10.8737 24.0352 10.9466 24.0352 11.0195C24.6185 10.9466 25.2018 10.8737 25.7852 10.8008C25.7852 10.8737 25.7852 10.9466 25.7852 11.0195C26.2876 10.9571 26.7889 10.9024 27.2891 10.8555C27.3117 10.8805 27.339 10.8987 27.3711 10.9102C27.3705 10.8587 27.3978 10.8222 27.4531 10.8008C27.5461 10.9625 27.6281 11.1266 27.6992 11.293Z" fill="#F09515"/>
<path fill-rule="evenodd" clip-rule="evenodd" d="M19.5508 10.8008C19.3948 10.8803 19.2307 10.935 19.0586 10.9648C18.3661 10.99 17.6734 11.0082 16.9805 11.0195C17.8276 10.9287 18.6844 10.8557 19.5508 10.8008Z" fill="#E4A64D"/>
<path fill-rule="evenodd" clip-rule="evenodd" d="M19.7148 10.7461C19.7148 10.7643 19.7148 10.7826 19.7148 10.8008C19.6602 10.8008 19.6055 10.8008 19.5508 10.8008C18.6844 10.8557 17.8276 10.9287 16.9805 11.0195C16.7252 11.0195 16.4701 11.0195 16.2148 11.0195C15.177 11.0886 14.1379 11.1524 13.0977 11.2109C13.0125 11.2224 12.9396 11.2498 12.8789 11.293C12.8607 11.293 12.8424 11.293 12.8242 11.293C12.8919 11.2056 12.983 11.1419 13.0977 11.1016C15.3115 11.02 17.5172 10.9015 19.7148 10.7461Z" fill="#FDF3D4"/>
<path fill-rule="evenodd" clip-rule="evenodd" d="M16.2148 11.0195C15.1148 11.1534 14.0028 11.2445 12.8789 11.293C12.9396 11.2498 13.0125 11.2224 13.0977 11.2109C14.1379 11.1524 15.177 11.0886 16.2148 11.0195Z" fill="#E39D3A"/>
<path fill-rule="evenodd" clip-rule="evenodd" d="M6.15234 11.4023C6.22524 11.5117 6.2982 11.6211 6.37109 11.7305C6.5386 11.9528 6.73909 12.1351 6.97266 12.2773C7.36821 12.5435 7.80571 12.6165 8.28516 12.4961C8.12897 12.5785 7.95577 12.6149 7.76562 12.6055C7.54458 12.6092 7.33491 12.5728 7.13672 12.4961C6.98605 12.552 6.85847 12.5338 6.75391 12.4414C6.65749 12.5209 6.58454 12.5027 6.53516 12.3867C6.39373 12.3331 6.24788 12.3149 6.09766 12.332C6.09766 12.4049 6.09766 12.4779 6.09766 12.5508C5.9518 12.5508 5.80601 12.5508 5.66016 12.5508C5.67902 12.3874 5.60612 12.3145 5.44141 12.332C5.27669 12.3145 5.20377 12.3874 5.22266 12.5508C5.07682 12.5508 4.93099 12.5508 4.78516 12.5508C4.80404 12.3874 4.73112 12.3145 4.56641 12.332C4.40169 12.3145 4.32877 12.3874 4.34766 12.5508C4.20182 12.5508 4.05599 12.5508 3.91016 12.5508C3.92904 12.3874 3.85613 12.3145 3.69141 12.332C3.52669 12.3145 3.45377 12.3874 3.47266 12.5508C3.32682 12.5508 3.18099 12.5508 3.03516 12.5508C3.05404 12.3874 2.98113 12.3145 2.81641 12.332C2.65169 12.3145 2.57877 12.3874 2.59766 12.5508C2.45182 12.5508 2.30599 12.5508 2.16016 12.5508C2.17904 12.3874 2.10613 12.3145 1.94141 12.332C1.77669 12.3145 1.70377 12.3874 1.72266 12.5508C1.57682 12.5508 1.43099 12.5508 1.28516 12.5508C1.30404 12.3874 1.23112 12.3145 1.06641 12.332C0.901688 12.3145 0.828773 12.3874 0.847656 12.5508C0.701821 12.5508 0.555991 12.5508 0.410156 12.5508C0.427862 12.3769 0.354945 12.3131 0.191406 12.3594C0.277686 12.4815 0.241227 12.5635 0.0820312 12.6055C0.0997981 12.116 0.172715 11.642 0.300781 11.1836C0.394472 11.1215 0.430931 11.0304 0.410156 10.9102C0.555991 10.9102 0.701821 10.9102 0.847656 10.9102C0.847656 10.8373 0.847656 10.7643 0.847656 10.6914C1.21773 10.6739 1.58231 10.7103 1.94141 10.8008C2.04092 10.7926 2.12295 10.7562 2.1875 10.6914C2.44442 10.7255 2.71786 10.7255 3.00781 10.6914C3.23892 10.709 3.46679 10.7454 3.69141 10.8008C3.79092 10.7926 3.87295 10.7562 3.9375 10.6914C4.03586 10.7035 4.13611 10.7217 4.23828 10.7461C4.73047 10.7096 5.22266 10.6732 5.71484 10.6367C5.80874 10.7006 5.84522 10.7918 5.82422 10.9102C5.76953 10.9102 5.71484 10.9102 5.66016 10.9102C5.67859 11.0936 5.70593 11.2576 5.74219 11.4023C5.77866 11.3294 5.81509 11.3294 5.85156 11.4023C5.86742 11.3179 5.90384 11.245 5.96094 11.1836C6.01284 11.2707 6.0766 11.3436 6.15234 11.4023Z" fill="#EF9413"/>
<path fill-rule="evenodd" clip-rule="evenodd" d="M12.496 11.6211C12.3575 12.1025 12.3029 12.5947 12.3319 13.0977C12.2598 12.7416 12.2598 12.377 12.3319 12.0039C12.3578 11.8553 12.4125 11.7277 12.496 11.6211Z" fill="#FDF6D8"/>
<path fill-rule="evenodd" clip-rule="evenodd" d="M9.98047 12.3867C9.89538 12.2198 9.75866 12.1287 9.57031 12.1133C9.30431 12.182 9.04001 12.255 8.77734 12.332C8.92484 12.2259 9.0889 12.1439 9.26953 12.0859C9.3607 12.0768 9.4518 12.0677 9.54297 12.0586C9.80071 12.0252 9.94656 12.1346 9.98047 12.3867Z" fill="#FEF5D6"/>
<path fill-rule="evenodd" clip-rule="evenodd" d="M12.4963 11.6211C12.5145 11.6211 12.5328 11.6211 12.551 11.6211C12.5032 11.9329 12.4485 12.2428 12.3869 12.5508C12.3869 12.7331 12.3869 12.9154 12.3869 13.0977C12.3687 13.0977 12.3505 13.0977 12.3323 13.0977C12.3032 12.5947 12.3579 12.1025 12.4963 11.6211Z" fill="#E2A141"/>
<path fill-rule="evenodd" clip-rule="evenodd" d="M9.98047 12.3867C9.98047 12.4049 9.98047 12.4232 9.98047 12.4414C10.009 12.8593 9.95427 13.2603 9.81641 13.6445C9.77993 13.7174 9.72524 13.7721 9.65234 13.8086C9.6868 13.64 9.74148 13.476 9.81641 13.3164C9.8799 13.0815 9.88903 12.8445 9.84375 12.6055C9.7662 12.4687 9.71152 12.4869 9.67969 12.6602C9.54816 12.6178 9.41145 12.5905 9.26953 12.5781C9.15146 12.3967 9.11504 12.4058 9.16016 12.6055C9.08059 12.6736 9.00763 12.6644 8.94141 12.5781C9.02196 12.5393 9.05844 12.4755 9.05078 12.3867C8.80387 12.4678 8.5487 12.5042 8.28516 12.4961C8.39453 12.4596 8.50391 12.4232 8.61328 12.3867C8.68388 12.3997 8.73857 12.3815 8.77734 12.332C9.04001 12.255 9.30431 12.182 9.57031 12.1133C9.75866 12.1287 9.89537 12.2198 9.98047 12.3867Z" fill="#E9951F"/>
<path fill-rule="evenodd" clip-rule="evenodd" d="M27.8086 12.0039C27.8529 12.3948 27.9076 12.7776 27.9727 13.1523C27.9727 13.5898 27.9727 14.0273 27.9727 14.4648C27.9383 14.8865 27.8836 15.3058 27.8086 15.7227C27.8086 15.6498 27.8086 15.5768 27.8086 15.5039C27.8305 15.1763 27.8487 14.8481 27.8633 14.5195C27.8686 14.2944 27.8412 14.0757 27.7812 13.8633C26.0708 13.972 24.3482 14.0085 22.6133 13.9727C22.6092 14.1521 22.6365 14.2797 22.6953 14.3555C22.5549 14.449 22.4182 14.5402 22.2852 14.6289C22.3797 14.3998 22.4527 14.1628 22.5039 13.918C22.478 13.7642 22.4051 13.6366 22.2852 13.5352C22.2852 13.4805 22.2852 13.4258 22.2852 13.3711C22.079 13.3743 21.8967 13.3105 21.7383 13.1797C20.6082 13.1523 19.478 13.1432 18.3477 13.1523C17.8187 13.1433 17.2901 13.1523 16.7617 13.1797C16.12 13.2575 15.482 13.3395 14.8477 13.4258C14.2279 13.4572 13.6081 13.4663 12.9883 13.4531C12.8256 13.3262 12.6434 13.2442 12.4414 13.207C12.4232 13.1706 12.4049 13.1341 12.3867 13.0977C12.3867 12.9154 12.3867 12.7331 12.3867 12.5508C12.4584 12.3799 12.5496 12.2158 12.6602 12.0586C12.5528 11.8538 12.5893 11.6898 12.7695 11.5664C12.8401 11.6918 12.9312 11.8011 13.043 11.8945C17.8841 11.7946 22.733 11.749 27.5898 11.7578C27.5572 11.6689 27.5572 11.5686 27.5898 11.457C27.6552 11.5149 27.6917 11.5879 27.6992 11.6758C27.6454 11.8077 27.6818 11.9171 27.8086 12.0039Z" fill="#EF920B"/>
<path fill-rule="evenodd" clip-rule="evenodd" d="M6.97266 12.2773C7.51472 12.4167 8.06159 12.4532 8.61328 12.3867C8.50391 12.4232 8.39453 12.4596 8.28516 12.4961C7.80571 12.6165 7.36821 12.5435 6.97266 12.2773Z" fill="#FCF0CF"/>
<path fill-rule="evenodd" clip-rule="evenodd" d="M9.98047 12.4414C10.02 12.4643 10.0473 12.5007 10.0625 12.5508C10.1204 12.8938 10.0839 13.2219 9.95312 13.5352C9.91441 13.5833 9.8688 13.6198 9.81641 13.6445C9.95427 13.2603 10.009 12.8593 9.98047 12.4414Z" fill="#FDF3CD"/>
<path fill-rule="evenodd" clip-rule="evenodd" d="M8.28494 12.4961C8.54848 12.5042 8.80365 12.4678 9.05057 12.3867C9.05822 12.4755 9.02175 12.5393 8.94119 12.5781C9.00742 12.6644 9.08037 12.6735 9.15994 12.6055C9.11483 12.4058 9.15125 12.3967 9.26932 12.5781C9.41123 12.5905 9.54795 12.6178 9.67947 12.6602C9.7113 12.4869 9.76599 12.4687 9.84354 12.6055C9.88882 12.8445 9.87968 13.0815 9.81619 13.3164C9.74127 13.476 9.68658 13.64 9.65213 13.8086C9.55391 13.9398 9.42627 14.031 9.26932 14.082C9.05057 14.1185 8.83182 14.1549 8.61307 14.1914C8.6916 14.1406 8.7645 14.0768 8.83182 14C8.74388 13.964 8.68006 13.9914 8.64041 14.082C8.54586 13.941 8.44561 13.941 8.33963 14.082C5.59519 13.9733 2.84257 13.9368 0.0818174 13.9727C0.0818174 14.2826 0.0818174 14.5924 0.0818174 14.9023C0.0275114 14.4384 0.00928223 13.9644 0.0271299 13.4805C0.0116826 13.1837 0.0299118 12.892 0.0818174 12.6055C0.241013 12.5635 0.277472 12.4815 0.191192 12.3594C0.354732 12.313 0.427648 12.3769 0.409942 12.5508C0.555778 12.5508 0.701607 12.5508 0.847442 12.5508C0.828559 12.3874 0.901474 12.3145 1.06619 12.332C1.23091 12.3145 1.30383 12.3874 1.28494 12.5508C1.43078 12.5508 1.57661 12.5508 1.72244 12.5508C1.70356 12.3874 1.77647 12.3145 1.94119 12.332C2.10591 12.3145 2.17883 12.3874 2.15994 12.5508C2.30578 12.5508 2.45161 12.5508 2.59744 12.5508C2.57856 12.3874 2.65147 12.3145 2.81619 12.332C2.98091 12.3145 3.05383 12.3874 3.03494 12.5508C3.18078 12.5508 3.32661 12.5508 3.47244 12.5508C3.45356 12.3874 3.52647 12.3145 3.69119 12.332C3.85591 12.3145 3.92883 12.3874 3.90994 12.5508C4.05578 12.5508 4.20161 12.5508 4.34744 12.5508C4.32856 12.3874 4.40147 12.3145 4.56619 12.332C4.73091 12.3145 4.80383 12.3874 4.78494 12.5508C4.93078 12.5508 5.07661 12.5508 5.22244 12.5508C5.20356 12.3874 5.27647 12.3145 5.44119 12.332C5.60591 12.3145 5.67881 12.3874 5.65994 12.5508C5.80579 12.5508 5.95159 12.5508 6.09744 12.5508C6.09744 12.4779 6.09744 12.4049 6.09744 12.332C6.24767 12.3149 6.39352 12.3331 6.53494 12.3867C6.58433 12.5027 6.65728 12.5209 6.75369 12.4414C6.85825 12.5338 6.98584 12.552 7.13651 12.4961C7.33469 12.5728 7.54436 12.6092 7.76541 12.6055C7.95556 12.6149 8.12876 12.5784 8.28494 12.4961Z" fill="#EE9105"/>
<path fill-rule="evenodd" clip-rule="evenodd" d="M18.3477 13.207C18.3477 13.1888 18.3477 13.1706 18.3477 13.1524C19.478 13.1432 20.6082 13.1524 21.7383 13.1797C21.8967 13.3105 22.079 13.3743 22.2852 13.3711C22.2852 13.4258 22.2852 13.4805 22.2852 13.5352C21.9072 13.3505 21.5061 13.2594 21.082 13.2617C20.1801 13.2072 19.2687 13.189 18.3477 13.207Z" fill="#E9A341"/>
<path fill-rule="evenodd" clip-rule="evenodd" d="M18.3477 13.2071C19.2687 13.189 20.1801 13.2072 21.082 13.2617C19.549 13.2456 18.0178 13.282 16.4883 13.3711C16.4883 13.3529 16.4883 13.3346 16.4883 13.3164C17.1032 13.2299 17.723 13.1934 18.3477 13.2071Z" fill="#FDF6D8"/>
<path fill-rule="evenodd" clip-rule="evenodd" d="M18.3477 13.1523C18.3477 13.1705 18.3477 13.1888 18.3477 13.207C17.723 13.1933 17.1032 13.2298 16.4883 13.3164C16.2195 13.3088 15.9643 13.3453 15.7227 13.4258C15.5768 13.4258 15.431 13.4258 15.2852 13.4258C15.1393 13.4258 14.9935 13.4258 14.8477 13.4258C15.482 13.3395 16.12 13.2575 16.7617 13.1797C17.2901 13.1523 17.8187 13.1433 18.3477 13.1523Z" fill="#E49A2F"/>
<path fill-rule="evenodd" clip-rule="evenodd" d="M16.4883 13.3164C16.4883 13.3346 16.4883 13.3529 16.4883 13.3711C16.2339 13.3983 15.9786 13.4165 15.7227 13.4258C15.9643 13.3453 16.2195 13.3089 16.4883 13.3164Z" fill="#FAE5AD"/>
<path fill-rule="evenodd" clip-rule="evenodd" d="M12.4414 13.207C12.6434 13.2442 12.8256 13.3262 12.9883 13.4531C13.6081 13.4663 14.2279 13.4572 14.8477 13.4258C14.7018 13.4623 14.556 13.4987 14.4102 13.5352C13.8604 13.5507 13.3136 13.5324 12.7695 13.4805C12.64 13.4154 12.5306 13.3242 12.4414 13.207Z" fill="#E49F39"/>
<path fill-rule="evenodd" clip-rule="evenodd" d="M14.8477 13.4258C14.9935 13.4258 15.1393 13.4258 15.2852 13.4258C15.2665 13.4716 15.23 13.4899 15.1758 13.4805C14.922 13.5148 14.6668 13.533 14.4102 13.5352C14.556 13.4987 14.7018 13.4623 14.8477 13.4258Z" fill="#FAE6AD"/>
<path fill-rule="evenodd" clip-rule="evenodd" d="M12.7695 13.4805C13.3136 13.5324 13.8604 13.5507 14.4102 13.5352C14.6668 13.533 14.922 13.5148 15.1758 13.4805C14.7947 13.5533 14.3936 13.5897 13.9727 13.5898C13.5517 13.5897 13.1506 13.5533 12.7695 13.4805Z" fill="#FDFAE0"/>
<path fill-rule="evenodd" clip-rule="evenodd" d="M9.26953 14.082C9.26532 14.1504 9.22884 14.1959 9.16016 14.2188C8.80507 14.2419 8.47695 14.3422 8.17578 14.5195C8.19968 14.4335 8.25437 14.3696 8.33984 14.3281C8.44873 14.3077 8.53989 14.2621 8.61328 14.1914C8.83203 14.1549 9.05078 14.1185 9.26953 14.082Z" fill="#FEF3D3"/>
<path fill-rule="evenodd" clip-rule="evenodd" d="M8.61336 14.1914C8.53997 14.2621 8.44881 14.3076 8.33993 14.3281C8.25445 14.3696 8.19976 14.4334 8.17586 14.5195C8.10504 14.8052 8.11418 15.0968 8.20321 15.3945C8.34118 15.6345 8.4779 15.8715 8.61336 16.1054C8.40358 16.0648 8.31242 15.9372 8.33993 15.7226C8.16689 15.7258 8.00283 15.7622 7.84774 15.832C7.83467 15.7244 7.85288 15.6241 7.90243 15.5312C5.33218 15.5039 2.76187 15.4947 0.191489 15.5039C0.191489 15.6497 0.191489 15.7955 0.191489 15.9414C0.104298 15.6081 0.0678397 15.2617 0.0821136 14.9023C0.0821136 14.5924 0.0821136 14.2825 0.0821136 13.9726C2.84287 13.9368 5.59549 13.9732 8.33993 14.082C8.44591 13.941 8.54615 13.941 8.64071 14.082C8.68036 13.9913 8.74418 13.964 8.83211 14C8.76479 14.0768 8.6919 14.1406 8.61336 14.1914Z" fill="#EE8F03"/>
<path fill-rule="evenodd" clip-rule="evenodd" d="M27.8086 15.5039C27.5807 15.5221 27.3437 15.5221 27.0977 15.5039C27.0977 15.5768 27.0977 15.6498 27.0977 15.7227C26.9518 15.7227 26.806 15.7227 26.6602 15.7227C26.6602 15.6498 26.6602 15.5768 26.6602 15.5039C26.2227 15.5039 25.7852 15.5039 25.3477 15.5039C25.3477 15.5768 25.3477 15.6498 25.3477 15.7227C25.2018 15.7227 25.056 15.7227 24.9102 15.7227C24.9102 15.6498 24.9102 15.5768 24.9102 15.5039C24.7643 15.5039 24.6185 15.5039 24.4727 15.5039C24.4727 15.5768 24.4727 15.6498 24.4727 15.7227C24.3268 15.7227 24.181 15.7227 24.0352 15.7227C24.0352 15.6498 24.0352 15.5768 24.0352 15.5039C23.5977 15.5039 23.1602 15.5039 22.7227 15.5039C22.7227 15.5768 22.7227 15.6498 22.7227 15.7227C22.4104 15.6897 22.1188 15.6897 21.8477 15.7227C21.8477 16.0143 21.8477 16.306 21.8477 16.5977C21.7748 16.5977 21.7018 16.5977 21.6289 16.5977C21.6289 16.4518 21.6289 16.306 21.6289 16.1602C21.5222 16.1751 21.4402 16.1387 21.3828 16.0508C21.3646 16.069 21.3463 16.0873 21.3281 16.1055C21.3161 16.0268 21.2888 15.9539 21.2461 15.8867C21.1799 15.929 21.1799 15.9746 21.2461 16.0234C21.2096 16.0326 21.1732 16.0416 21.1367 16.0508C21.037 15.9822 20.9276 15.9275 20.8086 15.8867C20.5827 15.9757 20.3457 16.0304 20.0977 16.0508C20.317 15.9593 20.5357 15.8682 20.7539 15.7773C21.4247 15.5975 21.9352 15.2147 22.2852 14.6289C22.4182 14.5402 22.5549 14.449 22.6953 14.3555C22.6365 14.2797 22.6092 14.1521 22.6133 13.9727C24.3482 14.0085 26.0708 13.972 27.7812 13.8633C27.8412 14.0757 27.8686 14.2944 27.8633 14.5195C27.8487 14.8481 27.8305 15.1763 27.8086 15.5039Z" fill="#EE8F03"/>
<path fill-rule="evenodd" clip-rule="evenodd" d="M8.61328 16.1055C8.82602 16.3192 8.97187 16.5744 9.05078 16.8711C9.06817 17.1189 9.04996 17.356 8.99609 17.582C9.00424 17.5245 8.99516 17.4698 8.96875 17.418C8.95054 17.5274 8.93227 17.6367 8.91406 17.7461C8.89585 17.7279 8.87759 17.7096 8.85938 17.6914C8.83395 17.7697 8.78834 17.8334 8.72266 17.8828C6.04302 17.9102 3.36334 17.9193 0.683594 17.9102C0.683594 18.0013 0.683594 18.0924 0.683594 18.1836C0.419928 17.4637 0.255865 16.7163 0.191406 15.9414C0.191406 15.7956 0.191406 15.6498 0.191406 15.5039C2.76178 15.4948 5.3321 15.5039 7.90234 15.5313C7.8528 15.6242 7.83459 15.7245 7.84766 15.832C8.00275 15.7623 8.16681 15.7258 8.33984 15.7227C8.31234 15.9373 8.4035 16.0648 8.61328 16.1055Z" fill="#ED8C01"/>
<path fill-rule="evenodd" clip-rule="evenodd" d="M27.8086 15.5039C27.8086 15.5768 27.8086 15.6498 27.8086 15.7227C27.7104 16.8074 27.4551 17.8465 27.043 18.8398C27.0862 18.72 27.0862 18.6106 27.043 18.5117C27.0133 18.5084 26.9951 18.4902 26.9883 18.457C27.1957 18.334 27.2868 18.1517 27.2617 17.9102C22.2487 17.9102 17.2357 17.9102 12.2227 17.9102C12.2227 17.9831 12.2227 18.056 12.2227 18.1289C12.0768 18.1289 11.931 18.1289 11.7852 18.1289C11.7941 17.982 11.785 17.8361 11.7578 17.6914C11.7174 17.7855 11.6718 17.8766 11.6211 17.9648C11.5535 17.924 11.4805 17.9058 11.4023 17.9102C11.4162 18.1243 11.3798 18.3247 11.293 18.5117C11.2748 18.5117 11.2565 18.5117 11.2383 18.5117C11.2662 18.272 11.3117 18.035 11.375 17.8008C11.419 17.5669 11.5193 17.3664 11.6758 17.1992C12.0268 17.0276 12.3914 16.9 12.7695 16.8164C12.806 16.8164 12.8424 16.8164 12.8789 16.8164C14.0223 16.8077 15.1616 16.7347 16.2969 16.5977C16.4224 16.5951 16.5227 16.5587 16.5977 16.4883C16.9774 16.4233 17.3602 16.3868 17.7461 16.3789C18.0322 16.382 18.3056 16.3455 18.5664 16.2695C18.9421 16.2414 19.3067 16.1867 19.6602 16.1055C19.8038 16.0731 19.9497 16.0549 20.0977 16.0508C20.3457 16.0304 20.5827 15.9757 20.8086 15.8867C20.9276 15.9275 21.037 15.9822 21.1367 16.0508C21.1732 16.0416 21.2096 16.0326 21.2461 16.0234C21.1799 15.9746 21.1799 15.929 21.2461 15.8867C21.2888 15.9539 21.3161 16.0268 21.3281 16.1055C21.3463 16.0873 21.3646 16.069 21.3828 16.0508C21.4402 16.1387 21.5222 16.1751 21.6289 16.1602C21.6289 16.306 21.6289 16.4518 21.6289 16.5977C21.7018 16.5977 21.7748 16.5977 21.8477 16.5977C21.8477 16.306 21.8477 16.0143 21.8477 15.7227C22.1188 15.6897 22.4104 15.6897 22.7227 15.7227C22.7227 15.6498 22.7227 15.5768 22.7227 15.5039C23.1602 15.5039 23.5977 15.5039 24.0352 15.5039C24.0352 15.5768 24.0352 15.6498 24.0352 15.7227C24.181 15.7227 24.3268 15.7227 24.4727 15.7227C24.4727 15.6498 24.4727 15.5768 24.4727 15.5039C24.6185 15.5039 24.7643 15.5039 24.9102 15.5039C24.9102 15.5768 24.9102 15.6498 24.9102 15.7227C25.056 15.7227 25.2018 15.7227 25.3477 15.7227C25.3477 15.6498 25.3477 15.5768 25.3477 15.5039C25.7852 15.5039 26.2227 15.5039 26.6602 15.5039C26.6602 15.5768 26.6602 15.6498 26.6602 15.7227C26.806 15.7227 26.9518 15.7227 27.0977 15.7227C27.0977 15.6498 27.0977 15.5768 27.0977 15.5039C27.3437 15.5221 27.5807 15.5221 27.8086 15.5039Z" fill="#EC8B02"/>
<path fill-rule="evenodd" clip-rule="evenodd" d="M20.7539 15.7773C20.5357 15.8682 20.317 15.9593 20.0977 16.0508C19.9497 16.0549 19.8038 16.0731 19.6602 16.1054C19.9106 16.0217 20.1658 15.9214 20.4258 15.8047C20.5337 15.7776 20.6431 15.7685 20.7539 15.7773Z" fill="#FEF7D7"/>
<path fill-rule="evenodd" clip-rule="evenodd" d="M19.6602 16.1055C19.3067 16.1867 18.9421 16.2414 18.5664 16.2695C18.3104 16.2788 18.0552 16.297 17.8008 16.3242C17.8069 16.2905 17.8251 16.2631 17.8555 16.2422C18.4564 16.1827 19.058 16.1371 19.6602 16.1055Z" fill="#FDF5D6"/>
<path fill-rule="evenodd" clip-rule="evenodd" d="M18.5664 16.2695C18.3056 16.3455 18.0322 16.382 17.7461 16.3789C17.7461 16.3607 17.7461 16.3424 17.7461 16.3242C17.7643 16.3242 17.7826 16.3242 17.8008 16.3242C18.0552 16.297 18.3104 16.2788 18.5664 16.2695Z" fill="#E5AF5B"/>
<path fill-rule="evenodd" clip-rule="evenodd" d="M17.7461 16.3242C17.7461 16.3424 17.7461 16.3607 17.7461 16.3789C17.3602 16.3868 16.9774 16.4233 16.5977 16.4883C15.4357 16.6276 14.2691 16.7188 13.0977 16.7617C13.1583 16.7185 13.2312 16.6912 13.3164 16.6797C14.804 16.6025 16.2805 16.4841 17.7461 16.3242Z" fill="#FEF6D7"/>
<path fill-rule="evenodd" clip-rule="evenodd" d="M16.5977 16.4883C16.5227 16.5587 16.4224 16.5951 16.2969 16.5977C15.1616 16.7347 14.0223 16.8077 12.8789 16.8164C12.9373 16.7653 13.0102 16.7471 13.0977 16.7617C14.2691 16.7188 15.4357 16.6276 16.5977 16.4883Z" fill="#E19E40"/>
<path fill-rule="evenodd" clip-rule="evenodd" d="M12.7695 16.8164C12.3914 16.9 12.0268 17.0276 11.6758 17.1992C11.7423 17.0925 11.8334 17.0105 11.9492 16.9531C12.2131 16.8495 12.4865 16.8039 12.7695 16.8164Z" fill="#E39A33"/>
<path fill-rule="evenodd" clip-rule="evenodd" d="M9.05078 16.8711C9.10492 17.2071 9.12313 17.5535 9.10547 17.9102C9.05641 18.4599 8.98346 19.0068 8.88672 19.5508C8.96301 18.9033 8.99948 18.247 8.99609 17.582C9.04996 17.356 9.06817 17.1189 9.05078 16.8711Z" fill="#DE942E"/>
<path fill-rule="evenodd" clip-rule="evenodd" d="M27.043 18.5117C21.7983 18.5846 16.5483 18.5846 11.293 18.5117C11.3798 18.3247 11.4162 18.1243 11.4023 17.9102C11.4805 17.9058 11.5535 17.924 11.6211 17.9648C11.6718 17.8766 11.7174 17.7855 11.7578 17.6914C11.785 17.8361 11.7941 17.982 11.7852 18.1289C11.931 18.1289 12.0768 18.1289 12.2227 18.1289C12.2227 18.056 12.2227 17.9831 12.2227 17.9102C17.2357 17.9102 22.2487 17.9102 27.2617 17.9102C27.2868 18.1517 27.1957 18.334 26.9883 18.457C26.9951 18.4902 27.0133 18.5084 27.043 18.5117Z" fill="#EE8800"/>
<path fill-rule="evenodd" clip-rule="evenodd" d="M8.99609 17.582C8.99948 18.247 8.96301 18.9033 8.88672 19.5508C8.85052 19.7677 8.8323 19.9864 8.83203 20.207C8.7203 20.5681 8.70204 20.9327 8.77734 21.3008C8.85024 21.4831 8.97788 21.6107 9.16016 21.6836C9.40133 21.7784 9.62008 21.7419 9.81641 21.5742C9.97467 21.4986 10.1114 21.3893 10.2266 21.2461C10.4762 20.8926 10.6676 20.5098 10.8008 20.0977C10.9956 19.6102 11.1232 19.0998 11.1836 18.5664C11.2201 18.5664 11.2383 18.5482 11.2383 18.5117C11.2565 18.5117 11.2748 18.5117 11.293 18.5117C16.5483 18.5846 21.7983 18.5846 27.043 18.5117C27.0862 18.6106 27.0862 18.72 27.043 18.8398C26.6851 19.9567 26.1565 20.9775 25.457 21.9023C19.9332 21.8635 14.4188 21.827 8.91406 21.793C6.77529 21.811 4.65162 21.8657 2.54297 21.957C1.70699 20.8136 1.0872 19.5558 0.683594 18.1836C0.683594 18.0924 0.683594 18.0013 0.683594 17.9102C3.36334 17.9193 6.04302 17.9102 8.72266 17.8828C8.78834 17.8334 8.83395 17.7697 8.85938 17.6914C8.87759 17.7096 8.89585 17.7279 8.91406 17.7461C8.93227 17.6367 8.95054 17.5273 8.96875 17.418C8.99516 17.4698 9.00424 17.5245 8.99609 17.582Z" fill="#EC8501"/>
<path fill-rule="evenodd" clip-rule="evenodd" d="M11.1836 18.5664C11.1232 19.0998 10.9956 19.6102 10.8008 20.0977C10.9052 19.6114 11.0055 19.1192 11.1016 18.6211C11.1225 18.5907 11.1499 18.5725 11.1836 18.5664Z" fill="#FDF6D7"/>
<path fill-rule="evenodd" clip-rule="evenodd" d="M9.10547 17.9102C9.12357 18.331 9.1053 18.7503 9.05078 19.168C9.02891 19.5326 8.95601 19.879 8.83203 20.207C8.8323 19.9864 8.85052 19.7677 8.88672 19.5508C8.98346 19.0067 9.05641 18.4599 9.10547 17.9102Z" fill="#FDF2CF"/>
<path fill-rule="evenodd" clip-rule="evenodd" d="M8.83208 20.207C8.80178 20.5709 8.78352 20.9355 8.77739 21.3008C8.70209 20.9327 8.72036 20.5681 8.83208 20.207Z" fill="#FADDAA"/>
<path fill-rule="evenodd" clip-rule="evenodd" d="M9.81641 21.5742C9.62008 21.7419 9.40133 21.7784 9.16016 21.6836C9.38602 21.6817 9.60477 21.6453 9.81641 21.5742Z" fill="#FBE6BB"/>
<path fill-rule="evenodd" clip-rule="evenodd" d="M25.457 21.9023C24.0471 24.0051 22.1877 25.5729 19.8789 26.6055C19.8326 26.5253 19.7597 26.4797 19.6602 26.4688C19.6966 26.4505 19.7331 26.4323 19.7695 26.4141C19.7227 26.3764 19.6862 26.3308 19.6602 26.2773C17.7552 26.2591 15.8502 26.2409 13.9453 26.2227C11.9792 26.2415 10.0196 26.2415 8.06641 26.2227C7.90305 26.2935 7.86658 26.4029 7.95703 26.5508C5.7295 25.5189 3.92479 23.9876 2.54297 21.957C4.65162 21.8657 6.77529 21.811 8.91406 21.793C14.4188 21.827 19.9332 21.8635 25.457 21.9023Z" fill="#EB8000"/>
<path fill-rule="evenodd" clip-rule="evenodd" d="M19.8789 26.6055C18.1565 27.437 16.3336 27.8745 14.4102 27.918C12.1312 28.0316 9.9802 27.5758 7.95704 26.5508C7.86659 26.4029 7.90306 26.2935 8.06641 26.2227C10.0196 26.2415 11.9792 26.2415 13.9453 26.2227C15.8502 26.2409 17.7552 26.2591 19.6602 26.2773C19.6862 26.3308 19.7227 26.3764 19.7695 26.4141C19.7331 26.4323 19.6966 26.4505 19.6602 26.4688C19.7597 26.4797 19.8326 26.5253 19.8789 26.6055Z" fill="#EA7C01"/>
</g>
<defs>
<clipPath id="clip0_0_871">
<rect width="28" height="28" fill="white"/>
</clipPath>
</defs>
</svg>
