<svg width="168" height="45" viewBox="0 0 168 45" fill="none" xmlns="http://www.w3.org/2000/svg">
<g clip-path="url(#clip0_0_24)">
<path fill-rule="evenodd" clip-rule="evenodd" d="M27.2146 9.14161C26.7885 9.14161 26.3626 9.14161 25.9365 9.14161C24.3777 8.98511 22.9291 9.1543 21.5909 9.64893C21.3598 9.46909 21.2747 9.21543 21.3353 8.88796C23.3425 8.80552 25.3021 8.88999 27.2146 9.14161Z" fill="white"/>
<path fill-rule="evenodd" clip-rule="evenodd" d="M155.793 18.7807C155.737 19.0788 155.822 19.3324 156.049 19.5417C156.204 19.5103 156.289 19.4258 156.304 19.288C156.869 15.9157 157.38 12.5334 157.838 9.14175C159.542 9.14175 161.246 9.14175 162.951 9.14175C161.573 14.6656 160.082 20.1614 158.477 25.6295C158.349 29.0105 158.307 32.3928 158.349 35.7758C157.034 36.4764 155.585 36.7301 154.004 36.5368C153.791 32.8603 153.664 29.1399 153.62 25.3758C152.153 19.9526 150.662 14.5411 149.147 9.14175C150.916 9.0626 152.663 9.14707 154.387 9.3954C154.868 12.5253 155.337 15.6539 155.793 18.7807Z" fill="white"/>
<path fill-rule="evenodd" clip-rule="evenodd" d="M7.0204 9.1416C6.98461 9.55354 7.15512 9.84931 7.53165 10.0294C7.47516 10.4857 7.39003 10.9507 7.27603 11.4245C7.61498 12.4605 7.87061 13.4751 8.0429 14.4684C7.64719 15.3329 7.73231 16.136 8.29852 16.8782C7.8067 17.7979 7.67889 18.7702 7.91508 19.7952C8.06974 19.2927 8.32536 19.208 8.68195 19.5416C8.72515 21.1546 8.85297 22.7612 9.06539 24.3611C9.23819 24.6406 9.40844 24.8942 9.57664 25.122C9.57664 25.3757 9.57664 25.6293 9.57664 25.883C9.54315 26.1052 9.62827 26.2744 9.83226 26.3903C10.0812 25.8214 10.1666 25.2296 10.0879 24.6147C10.5212 19.4487 11.0324 14.2909 11.6216 9.1416C13.3259 9.1416 15.0298 9.1416 16.7341 9.1416C16.6298 10.4193 16.4596 11.6876 16.2228 12.9465C15.9271 13.6499 15.7566 14.4108 15.7116 15.2294C14.5592 22.3488 13.3238 29.4512 12.0051 36.5366C10.5278 36.8682 9.03676 36.8682 7.53165 36.5366C5.91432 27.4154 4.29546 18.2837 2.6748 9.1416C4.12342 9.1416 5.57178 9.1416 7.0204 9.1416Z" fill="white"/>
<path fill-rule="evenodd" clip-rule="evenodd" d="M25.9365 9.14161C26.5948 10.1743 26.5948 11.231 25.9365 12.3123C26.3131 12.4924 26.4836 12.7882 26.4478 13.2001C26.7885 13.2001 27.1295 13.2001 27.4703 13.2001C29.8813 14.6341 30.7333 16.7478 30.0265 19.5416C28.604 19.984 27.1554 20.3221 25.6809 20.5562C25.7234 19.4538 25.6807 18.3547 25.5531 17.2587C24.7862 16.5822 24.0194 16.5822 23.2525 17.2587C22.7402 19.069 23.2088 20.5486 24.6584 21.6977C26.5656 22.9157 28.3123 24.3108 29.8987 25.883C30.0692 28.4196 30.0692 30.9562 29.8987 33.4927C29.4301 35.3107 28.2798 36.4522 26.4478 36.9171C23.0038 37.8899 20.4902 36.8332 18.9069 33.7464C18.7791 31.7189 18.7367 29.6897 18.7791 27.6586C19.307 27.6543 19.8182 27.5698 20.3128 27.405C21.1094 27.3514 21.8338 27.2667 22.4856 27.1513C22.6441 29.0203 22.9422 30.7959 23.3803 32.4781C23.5424 32.8452 23.8407 33.0141 24.275 32.9854C24.8642 32.9895 25.2903 32.7358 25.5531 32.2245C25.7236 30.787 25.7236 29.3498 25.5531 27.9123C25.2663 27.3735 24.8829 26.9086 24.4028 26.5172C22.3254 25.2154 20.4936 23.6511 18.9069 21.8245C18.7364 19.7952 18.7364 17.766 18.9069 15.7367C19.6311 14.3416 20.6963 13.2846 22.1022 12.566C21.9041 11.6044 21.7338 10.6321 21.5909 9.64893C22.9291 9.1543 24.3778 8.98511 25.9365 9.14161Z" fill="white"/>
<path fill-rule="evenodd" clip-rule="evenodd" d="M33.6052 9.1416C36.6727 9.1416 39.7402 9.1416 42.8077 9.1416C42.8077 10.5791 42.8077 12.0163 42.8077 13.4538C41.1231 13.3749 39.4616 13.4594 37.823 13.7074C37.6188 15.5802 37.6615 17.4405 37.9508 19.2879C39.3895 19.5403 40.8379 19.625 42.2964 19.5416C42.2964 20.8099 42.2964 22.0781 42.2964 23.3464C42.1259 23.4309 41.9557 23.5156 41.7852 23.6001C40.4531 23.5658 39.175 23.5658 37.9508 23.6001C37.6203 23.3096 37.3223 23.3944 37.0562 23.8537C36.9358 24.2966 36.7653 24.7195 36.5449 25.122C36.3471 27.2434 36.3898 29.3571 36.6727 31.4635C36.9276 32.0761 37.311 32.5834 37.823 32.9854C39.2929 32.696 40.7842 32.6539 42.2964 32.8586C42.5429 33.89 42.628 34.947 42.5521 36.0293C41.1993 36.3664 39.7509 36.5356 38.2065 36.5366C36.6952 36.5341 35.2042 36.4494 33.7331 36.283C33.6052 27.2363 33.5626 18.1891 33.6052 9.1416Z" fill="white"/>
<path fill-rule="evenodd" clip-rule="evenodd" d="M130.998 13.4538C129.975 13.4538 128.953 13.4538 127.93 13.4538C127.59 16.5776 127.419 19.7907 127.419 23.0928C127.419 26.3492 127.504 29.5621 127.675 32.7318C127.717 33.6657 127.674 34.5957 127.547 35.522C127.483 35.8071 127.355 36.0608 127.163 36.283C125.988 36.5222 124.795 36.6069 123.585 36.5366C123.627 28.9264 123.585 21.3167 123.457 13.7075C122.349 13.5383 121.241 13.3693 120.134 13.2001C120.006 11.8499 119.964 10.4972 120.006 9.14162C123.756 9.09926 127.505 9.14162 131.253 9.26845C131.544 10.5575 131.587 11.8682 131.381 13.2001C131.283 13.3412 131.156 13.4256 130.998 13.4538Z" fill="white"/>
<path fill-rule="evenodd" clip-rule="evenodd" d="M134.576 9.14172C135.94 9.14172 137.303 9.14172 138.666 9.14172C138.544 12.0578 138.672 14.9325 139.05 17.7661C140.322 14.9076 141.643 12.0753 143.012 9.26855C144.543 9.14198 146.077 9.09962 147.613 9.14172C145.834 13.2112 144.13 17.3118 142.501 21.4441C144.265 26.5365 145.969 31.6521 147.613 36.7904C146.077 36.8325 144.543 36.7901 143.012 36.6636C141.916 33.6965 140.893 30.695 139.945 27.6587C139.851 27.3556 139.638 27.1867 139.305 27.1514C138.925 27.3587 138.541 27.5699 138.155 27.7856C138.494 30.6105 138.494 33.4429 138.155 36.2831C136.992 36.6128 135.842 36.6128 134.704 36.2831C134.576 27.2364 134.534 18.1892 134.576 9.14172Z" fill="white"/>
<path fill-rule="evenodd" clip-rule="evenodd" d="M112.593 9.1416C114.467 9.1416 116.342 9.1416 118.217 9.1416C118.29 10.0563 118.205 10.9441 117.961 11.805C116.232 12.2783 114.527 12.828 112.848 13.4538C112.594 12.0262 112.509 10.589 112.593 9.1416Z" fill="white"/>
<path fill-rule="evenodd" clip-rule="evenodd" d="M100.323 21.3172C100.249 22.116 100.377 22.877 100.706 23.6002C100.877 23.9383 101.047 23.9383 101.218 23.6002C101.343 23.2722 101.386 22.9338 101.346 22.5855C101.951 19.3073 102.718 16.0944 103.646 12.9465C104.005 11.8036 104.516 10.7045 105.18 9.64899C105.33 9.70201 105.457 9.78673 105.563 9.90265C106.176 9.25481 106.773 9.25481 107.353 9.90265C107.608 9.22614 107.864 9.22614 108.12 9.90265C108.29 18.527 108.29 27.1514 108.12 35.7757C107.852 35.9972 107.639 36.2508 107.48 36.5367C106.39 36.612 105.325 36.5276 104.285 36.283C104.242 32.519 104.114 28.7986 103.902 25.1221C103.942 24.7738 103.899 24.4355 103.774 24.1075C102.825 27.2079 101.973 30.3363 101.218 33.4928C101.112 33.6087 100.984 33.6934 100.834 33.7465C100.149 30.8591 99.3826 27.9844 98.5336 25.1221C98.5336 24.8684 98.5336 24.6148 98.5336 24.3611C98.4516 23.9685 98.196 23.7993 97.7668 23.8538C97.8409 28.0902 97.7558 32.3179 97.5112 36.5367C96.1479 36.5367 94.7844 36.5367 93.4212 36.5367C93.1673 27.4235 93.0822 18.2919 93.1656 9.14168C94.6801 9.06355 96.1714 9.14802 97.639 9.39533C98.5745 13.3625 99.4692 17.3366 100.323 21.3172Z" fill="white"/>
<path fill-rule="evenodd" clip-rule="evenodd" d="M89.0754 11.1709C89.1606 11.8474 89.2459 12.5236 89.3311 13.2001C89.3738 19.8802 89.3311 26.56 89.2033 33.2391C88.7347 33.5351 88.3513 33.9156 88.0529 34.3806C88.2234 34.465 88.3937 34.5497 88.5642 34.6342C87.6442 34.9472 87.133 35.5814 87.0305 36.5366C85.3786 37.0536 83.6746 37.1804 81.918 36.9171C80.1253 36.2807 79.0174 35.0545 78.5949 33.2391C78.5182 26.0456 78.6033 18.8587 78.8505 11.6782C79.8743 9.56294 81.5785 8.63304 83.963 8.88796C86.1779 8.57571 87.8819 9.33668 89.0754 11.1709Z" fill="white"/>
<path fill-rule="evenodd" clip-rule="evenodd" d="M108.503 36.5367C108.162 36.5367 107.821 36.5367 107.48 36.5367C107.639 36.2509 107.852 35.9972 108.119 35.7758C108.29 27.1514 108.29 18.5271 108.119 9.9027C107.864 9.22619 107.608 9.22619 107.353 9.9027C106.773 9.25485 106.176 9.25485 105.563 9.9027C105.457 9.78677 105.33 9.70205 105.18 9.64904C104.516 10.7045 104.004 11.8036 103.646 12.9466C103.599 11.6532 103.855 10.427 104.413 9.26855C105.859 9.14198 107.308 9.09962 108.759 9.14172C108.843 18.3168 108.758 27.4484 108.503 36.5367Z" fill="white"/>
<path fill-rule="evenodd" clip-rule="evenodd" d="M25.9365 9.1416C26.3626 9.1416 26.7885 9.1416 27.2146 9.1416C26.9493 10.3937 26.7788 11.6619 26.7034 12.9465C27.0334 12.8863 27.289 12.9708 27.4703 13.2001C27.1295 13.2001 26.7885 13.2001 26.4478 13.2001C26.4836 12.7882 26.3131 12.4924 25.9365 12.3123C26.5948 11.231 26.5948 10.1742 25.9365 9.1416Z" fill="white"/>
<path fill-rule="evenodd" clip-rule="evenodd" d="M16.2228 12.9465C16.2647 13.6281 16.222 14.3046 16.095 14.9758C15.9971 15.1168 15.8693 15.2013 15.7115 15.2295C15.7565 14.4109 15.927 13.6499 16.2228 12.9465Z" fill="white"/>
<path fill-rule="evenodd" clip-rule="evenodd" d="M115.149 14.7222C115.988 14.7544 116.414 15.1772 116.427 15.9905C116.189 16.6084 115.891 17.2001 115.533 17.7661C115.481 18.7607 115.353 19.7332 115.149 20.6831C115.531 22.7659 115.701 24.8799 115.66 27.0246C115.658 28.4818 115.572 29.9193 115.405 31.3367C115.636 31.9574 115.849 32.5916 116.044 33.2392C116.225 33.4626 116.438 33.6316 116.683 33.7465C116.757 34.6612 116.672 35.549 116.427 36.4099C115.323 36.5365 114.215 36.5788 113.104 36.5367C112.851 29.8686 112.766 23.2311 112.848 16.6246C113.058 16.168 113.228 15.7028 113.36 15.2295C113.956 15.0603 114.553 14.8914 115.149 14.7222Z" fill="white"/>
<path fill-rule="evenodd" clip-rule="evenodd" d="M45.8751 9.1416C45.6231 17.7551 45.5377 26.3794 45.6195 35.0147C45.6195 35.4375 45.6195 35.8601 45.6195 36.283C45.322 27.3633 45.2793 18.4006 45.4917 9.39526C45.5896 9.25423 45.7174 9.16976 45.8751 9.1416Z" fill="white"/>
<path fill-rule="evenodd" clip-rule="evenodd" d="M127.93 13.4539C128.953 13.4539 129.975 13.4539 130.998 13.4539C130.113 13.7029 129.175 13.7874 128.186 13.7075C128.271 21.2762 128.185 28.8014 127.93 36.283C127.93 28.7578 127.93 21.2328 127.93 13.7075C127.93 13.623 127.93 13.5383 127.93 13.4539Z" fill="white"/>
<path fill-rule="evenodd" clip-rule="evenodd" d="M7.0204 9.14154C7.35834 9.09842 7.65665 9.18289 7.91509 9.3952C8.51989 14.6348 9.07357 19.8771 9.57664 25.122C9.40844 24.8942 9.23819 24.6405 9.06539 24.361C8.85297 22.7612 8.72516 21.1545 8.68196 19.5415C8.32536 19.2079 8.06974 19.2927 7.91509 19.7952C7.67889 18.7701 7.8067 17.7979 8.29852 16.8781C7.73231 16.1359 7.64719 15.3328 8.0429 14.4684C7.87061 13.475 7.61498 12.4604 7.27603 11.4245C7.39003 10.9506 7.47516 10.4857 7.53165 10.0293C7.15512 9.84925 6.98462 9.55348 7.0204 9.14154Z" fill="white"/>
<path fill-rule="evenodd" clip-rule="evenodd" d="M155.793 18.7808C155.964 18.95 156.134 19.1189 156.305 19.2881C156.289 19.4258 156.204 19.5103 156.049 19.5417C155.822 19.3325 155.737 19.0788 155.793 18.7808Z" fill="white"/>
<path fill-rule="evenodd" clip-rule="evenodd" d="M100.323 21.3171C100.549 21.9571 100.762 22.6336 100.962 23.3464C101.021 23.0326 101.149 22.779 101.345 22.5854C101.386 22.9337 101.343 23.2721 101.218 23.6001C101.047 23.9382 100.877 23.9382 100.706 23.6001C100.377 22.8769 100.249 22.1159 100.323 21.3171Z" fill="white"/>
<path fill-rule="evenodd" clip-rule="evenodd" d="M42.2964 23.3464C42.3184 23.5991 42.233 23.8104 42.0408 23.9806C40.6801 24.1072 39.3169 24.1495 37.9508 24.1074C39.2289 23.9382 40.507 23.7693 41.7852 23.6001C41.9557 23.5156 42.1259 23.4309 42.2964 23.3464Z" fill="white"/>
<path fill-rule="evenodd" clip-rule="evenodd" d="M41.7852 23.6001C40.5071 23.7693 39.229 23.9383 37.9509 24.1075C37.6968 26.6828 37.6114 29.3039 37.6953 31.9708C37.2676 29.4008 37.1398 26.7797 37.3118 24.1075C37.4928 23.884 37.706 23.7151 37.9509 23.6001C39.1751 23.5659 40.4532 23.5659 41.7852 23.6001Z" fill="white"/>
<path fill-rule="evenodd" clip-rule="evenodd" d="M116.939 16.7513C116.684 22.3723 116.598 28.0375 116.683 33.7463C116.438 33.6314 116.225 33.4625 116.044 33.239C115.849 32.5914 115.636 31.9573 115.405 31.3366C115.572 29.9191 115.658 28.4817 115.66 27.0244C115.702 24.8797 115.531 22.7657 115.149 20.683C115.353 19.733 115.481 18.7605 115.533 17.7659C115.891 17.2 116.19 16.6082 116.427 15.9903C116.414 15.1771 115.988 14.7542 115.149 14.722C115.664 14.3608 116.261 14.1919 116.939 14.2147C116.939 15.0601 116.939 15.9058 116.939 16.7513Z" fill="white"/>
<path fill-rule="evenodd" clip-rule="evenodd" d="M75.5274 9.14175C75.7662 11.0723 75.8513 13.0171 75.7831 14.9759C75.6576 15.6405 75.3592 16.2325 74.8884 16.7515C74.7547 18.2605 74.8825 19.7403 75.2718 21.1905C74.8096 21.8292 74.554 22.5478 74.5049 23.3466C74.6333 23.983 74.6333 24.5748 74.5049 25.1222C74.6599 25.6825 74.8304 26.2322 75.0162 26.771C74.5584 26.8762 74.2176 27.1299 73.9937 27.5319C74.3176 27.9875 74.3176 28.4524 73.9937 28.927C74.2342 28.9243 74.4047 29.0511 74.5049 29.3075C74.3899 29.6335 74.2194 29.9295 73.9937 30.1953C74.2562 31.2374 74.597 32.252 75.0162 33.2392C74.882 33.4148 74.7115 33.5416 74.5049 33.6197C74.6458 33.9743 74.7309 34.3127 74.7606 34.6343C74.1246 35.0618 74.2097 35.4001 75.0162 35.649C74.0573 35.5637 73.1627 35.4369 72.3321 35.2685C72.0614 35.3015 71.8485 35.4283 71.6931 35.649C72.0988 35.8676 72.5249 36.0368 72.9712 36.1563C64.0244 36.3255 55.0776 36.3255 46.1307 36.1563C45.9776 35.7449 45.8071 35.3644 45.6195 35.0148C45.5377 26.3796 45.6231 17.7552 45.8751 9.14175C55.7343 8.80464 65.6185 8.80464 75.5274 9.14175Z" fill="white"/>
<path fill-rule="evenodd" clip-rule="evenodd" d="M53.0326 15.7369C51.6694 15.7369 50.3059 15.7369 48.9427 15.7369C48.9427 20.4719 48.9427 25.2067 48.9427 29.9417C48.6737 29.9795 48.4181 29.9374 48.1758 29.8149C48.4718 25.7328 48.5142 21.6321 48.3036 17.5125C48.208 17.2801 48.0802 17.0686 47.9202 16.8783C48.2704 16.5128 48.526 16.09 48.687 15.61C50.1822 15.4026 51.6305 15.4447 53.0326 15.7369Z" fill="white"/>
<path fill-rule="evenodd" clip-rule="evenodd" d="M56.6113 16.2441C56.769 16.2723 56.8968 16.3568 56.9947 16.4978C57.1772 17.4244 57.0494 18.3122 56.6113 19.1612C56.6869 19.6401 56.8148 20.1053 56.9947 20.5563C57.0379 23.5599 57.1657 26.519 57.3781 29.4343C57.3562 29.687 57.4415 29.8983 57.6338 30.0685C58.5354 30.2734 59.3874 30.2311 60.19 29.9417C60.3605 28.7578 60.5308 27.5743 60.7013 26.3904C61.1126 27.6991 61.6238 28.9674 62.235 30.1953C61.828 30.4748 61.6151 30.3056 61.5959 29.688C61.0962 29.9297 60.6701 30.2681 60.3178 30.7026C59.075 30.5537 57.8393 30.3424 56.6113 30.0685C56.2961 28.4976 56.2961 26.8488 56.6113 25.1222C56.3063 24.6443 55.8805 24.5174 55.3332 24.7417C56.0032 24.9715 55.9605 25.0983 55.2054 25.1222C54.8843 25.0846 54.586 24.9999 54.3107 24.8685C55.1803 24.2458 55.734 23.4003 55.9722 22.3319C56.1427 20.8944 56.1427 19.4572 55.9722 18.0197C55.7557 17.5903 55.5428 17.1675 55.3332 16.7515C55.7194 16.4973 56.1455 16.3281 56.6113 16.2441Z" fill="white"/>
<path fill-rule="evenodd" clip-rule="evenodd" d="M67.6032 15.9905C66.9838 16.563 66.515 17.2395 66.1973 18.0197C66.0694 20.4703 66.027 22.9224 66.0694 25.3758C65.8626 24.9213 65.7348 24.4139 65.686 23.8539C65.5919 23.4962 65.379 23.2425 65.0469 23.0929C64.6763 23.3859 64.4207 23.7663 64.2801 24.2343C63.9496 24.3586 63.6086 24.401 63.2576 24.3612C63.2576 24.6993 63.2576 25.0377 63.2576 25.3758C63.0298 25.1828 62.8593 24.9291 62.7463 24.6148C63.547 24.0317 64.1009 23.2707 64.4079 22.3319C64.5354 20.897 64.5781 19.4595 64.5357 18.0197C65.3077 17.1276 66.2024 16.3666 67.2197 15.7368C67.3177 15.8779 67.4455 15.9623 67.6032 15.9905Z" fill="white"/>
<path fill-rule="evenodd" clip-rule="evenodd" d="M61.7238 15.7367C63.0466 16.035 63.9838 16.796 64.5357 18.0196C64.5781 19.4594 64.5354 20.8969 64.4078 22.3318C64.1008 23.2706 63.5469 24.0316 62.7463 24.6147C62.8593 24.929 63.0298 25.1827 63.2575 25.3757C63.926 26.9562 64.5226 28.5627 65.0469 30.1952C64.1095 30.1952 63.1724 30.1952 62.235 30.1952C61.6238 28.9672 61.1126 27.699 60.7013 26.3903C60.629 26.1902 60.5011 26.021 60.3179 25.883C60.1903 27.2332 60.1476 28.586 60.1901 29.9415C59.3874 30.231 58.5354 30.2733 57.6338 30.0684C57.4416 29.8982 57.3562 29.6869 57.3782 29.4342C57.3355 24.9521 57.3782 20.471 57.506 15.9904C58.8882 15.7436 60.2941 15.6588 61.7238 15.7367Z" fill="#343A40"/>
<path fill-rule="evenodd" clip-rule="evenodd" d="M61.2125 18.5271C61.4646 19.6609 61.5497 20.8448 61.4682 22.0783C60.9613 22.1653 60.6203 21.9961 60.4457 21.571C60.7003 21.5492 60.9132 21.6339 61.0847 21.8246C61.2123 20.7286 61.255 19.6295 61.2125 18.5271Z" fill="white"/>
<path fill-rule="evenodd" clip-rule="evenodd" d="M61.2125 18.5271C61.255 19.6295 61.2123 20.7286 61.0847 21.8246C60.9132 21.6339 60.7003 21.5492 60.4457 21.571C60.4457 20.5564 60.4457 19.5417 60.4457 18.5271C60.7013 18.5271 60.9569 18.5271 61.2125 18.5271Z" fill="white"/>
<path fill-rule="evenodd" clip-rule="evenodd" d="M61.7238 15.7368C60.2941 15.6589 58.8882 15.7437 57.506 15.9905C57.3782 20.4711 57.3355 24.9522 57.3782 29.4343C57.1658 26.519 57.038 23.5599 56.9948 20.5563C56.8148 20.1053 56.687 19.6401 56.6113 19.1612C57.0495 18.3122 57.1773 17.4244 56.9948 16.4978C56.8969 16.3568 56.769 16.2723 56.6113 16.2441C56.7271 16.0011 56.8974 15.7896 57.1226 15.61C58.7026 15.4022 60.2363 15.4443 61.7238 15.7368Z" fill="white"/>
<path fill-rule="evenodd" clip-rule="evenodd" d="M53.0326 15.7368C53.8961 15.8695 54.663 16.2076 55.3332 16.7514C55.5428 17.1674 55.7558 17.5903 55.9723 18.0197C56.1428 19.4572 56.1428 20.8944 55.9723 22.3319C55.734 23.4003 55.1803 24.2458 54.3107 24.8685C53.5617 25.0712 52.7949 25.1556 52.0101 25.1221C52.0525 26.7308 52.0101 28.3373 51.8823 29.9416C50.8767 30.2767 49.8969 30.2767 48.9426 29.9416C48.9426 25.2066 48.9426 20.4718 48.9426 15.7368C50.3059 15.7368 51.6694 15.7368 53.0326 15.7368Z" fill="#343A40"/>
<path fill-rule="evenodd" clip-rule="evenodd" d="M52.0101 18.5271C52.3509 18.5271 52.6919 18.5271 53.0326 18.5271C53.0326 19.7954 53.0326 21.0637 53.0326 22.332C52.6919 22.332 52.3509 22.332 52.0101 22.332C52.0101 21.0637 52.0101 19.7954 52.0101 18.5271Z" fill="white"/>
<path fill-rule="evenodd" clip-rule="evenodd" d="M66.0694 25.3757C66.027 22.9223 66.0694 20.4702 66.1972 18.0196C66.515 17.2393 66.9838 16.5628 67.6032 15.9903C69.8759 14.981 71.708 15.4883 73.0991 17.5123C73.2696 21.0635 73.2696 24.6147 73.0991 28.1659C71.9388 30.2979 70.1921 30.932 67.8588 30.0683C66.3105 28.8924 65.7139 27.3281 66.0694 25.3757Z" fill="#343A40"/>
<path fill-rule="evenodd" clip-rule="evenodd" d="M69.3925 18.2734C69.7304 18.2303 70.0287 18.3147 70.2871 18.527C70.4576 21.4865 70.4576 24.4456 70.2871 27.4051C69.9464 27.7432 69.6054 27.7432 69.2646 27.4051C69.0573 24.3419 69.0998 21.298 69.3925 18.2734Z" fill="white"/>
<path fill-rule="evenodd" clip-rule="evenodd" d="M10.0879 24.6147C10.1666 25.2296 10.0813 25.8214 9.83229 26.3903C9.62831 26.2744 9.54318 26.1052 9.57667 25.883C9.74717 25.4602 9.91742 25.0376 10.0879 24.6147Z" fill="white"/>
<path fill-rule="evenodd" clip-rule="evenodd" d="M37.9509 23.6001C37.706 23.715 37.4928 23.8839 37.3118 24.1074C37.1398 26.7797 37.2676 29.4007 37.6952 31.9708C39.2936 32.1719 40.9125 32.2987 42.5521 32.3512C42.6942 32.4484 42.7793 32.5752 42.8077 32.7317C42.889 33.8813 42.8039 34.9807 42.5521 36.0293C42.628 34.9469 42.5429 33.8899 42.2965 32.8586C40.7842 32.6539 39.2929 32.696 37.823 32.9854C37.311 32.5833 36.9276 32.076 36.6727 31.4634C36.3898 29.3571 36.3471 27.2433 36.5449 25.122C36.7653 24.7195 36.9358 24.2966 37.0562 23.8537C37.3223 23.3943 37.6203 23.3096 37.9509 23.6001Z" fill="white"/>
<path fill-rule="evenodd" clip-rule="evenodd" d="M113.36 15.2294C113.228 15.7027 113.058 16.168 112.849 16.6245C112.766 23.2311 112.851 29.8685 113.104 36.5367C112.934 36.5367 112.763 36.5367 112.593 36.5367C112.55 29.5182 112.593 22.5005 112.721 15.4831C112.892 15.2923 113.105 15.2076 113.36 15.2294Z" fill="white"/>
<path fill-rule="evenodd" clip-rule="evenodd" d="M78.8506 11.6782C78.6034 18.8588 78.5183 26.0456 78.595 33.2391C78.2974 26.3488 78.255 19.4155 78.4672 12.4392C78.5265 12.1254 78.6543 11.8718 78.8506 11.6782Z" fill="white"/>
<path fill-rule="evenodd" clip-rule="evenodd" d="M127.93 13.7075C127.93 21.2328 127.93 28.7578 127.93 36.283C127.313 36.6164 126.589 36.7855 125.758 36.7904C124.985 36.7899 124.261 36.7051 123.585 36.5367C124.795 36.607 125.988 36.5222 127.163 36.283C127.355 36.0608 127.483 35.8072 127.547 35.5221C127.674 34.5957 127.717 33.6658 127.675 32.7318C127.59 26.3468 127.675 20.0053 127.93 13.7075Z" fill="white"/>
<path fill-rule="evenodd" clip-rule="evenodd" d="M127.93 13.4539C127.93 13.5383 127.93 13.623 127.93 13.7075C127.675 20.0053 127.59 26.3468 127.675 32.7318C127.504 29.5621 127.419 26.3493 127.419 23.0928C127.419 19.7907 127.59 16.5777 127.93 13.4539Z" fill="white"/>
<path fill-rule="evenodd" clip-rule="evenodd" d="M75.5275 9.1416C75.6852 9.16976 75.813 9.25423 75.9109 9.39526C76.1233 18.4006 76.0806 27.3633 75.7831 36.283C75.7831 29.1806 75.7831 22.0781 75.7831 14.9757C75.8513 13.017 75.7662 11.0722 75.5275 9.1416Z" fill="white"/>
<path fill-rule="evenodd" clip-rule="evenodd" d="M98.5336 24.3611C98.5336 24.6147 98.5336 24.8684 98.5336 25.1221C98.4472 29.0606 98.1916 32.9502 97.7667 36.7903C97.9761 32.5814 98.1039 28.3537 98.1502 24.1074C98.2481 24.2485 98.3759 24.3329 98.5336 24.3611Z" fill="white"/>
<path fill-rule="evenodd" clip-rule="evenodd" d="M60.7013 26.3904C60.5308 27.5742 60.3606 28.7578 60.1901 29.9416C60.1476 28.586 60.1903 27.2333 60.3179 25.8831C60.5012 26.021 60.629 26.1902 60.7013 26.3904Z" fill="white"/>
<path fill-rule="evenodd" clip-rule="evenodd" d="M116.938 16.7515C116.938 23.431 116.938 30.1109 116.938 36.7904C115.441 36.8721 113.992 36.7876 112.593 36.5368C112.763 36.5368 112.934 36.5368 113.104 36.5368C114.215 36.5789 115.323 36.5365 116.427 36.4099C116.672 35.549 116.757 34.6612 116.683 33.7465C116.598 28.0377 116.684 22.3725 116.938 16.7515Z" fill="white"/>
<path fill-rule="evenodd" clip-rule="evenodd" d="M89.0756 11.1709C89.4403 11.5889 89.6533 12.0962 89.7146 12.6928C89.9268 19.5 89.8844 26.2643 89.5868 32.9855C89.6714 26.3467 89.5863 19.7516 89.3312 13.2002C89.2461 12.5237 89.1607 11.8474 89.0756 11.1709Z" fill="white"/>
<path fill-rule="evenodd" clip-rule="evenodd" d="M23.3803 32.4781C22.9422 30.7959 22.6442 29.0203 22.4857 27.1513C21.8338 27.2667 21.1094 27.3514 20.3129 27.405C21.1759 27.0037 22.113 26.8345 23.1247 26.8976C23.0488 28.7798 23.1339 30.6401 23.3803 32.4781Z" fill="white"/>
<path fill-rule="evenodd" clip-rule="evenodd" d="M89.3311 13.2002C89.5862 19.7517 89.6714 26.3468 89.5868 32.9855C89.4324 34.6612 88.5801 35.845 87.0305 36.5367C87.133 35.5814 87.6443 34.9473 88.5643 34.6343C88.3938 34.5498 88.2235 34.4651 88.053 34.3806C88.3513 33.9157 88.7348 33.5352 89.2033 33.2391C89.3311 26.5601 89.3738 19.8803 89.3311 13.2002Z" fill="white"/>
<path fill-rule="evenodd" clip-rule="evenodd" d="M75.7831 14.9758C75.7831 22.0782 75.7831 29.1807 75.7831 36.2831C75.7547 36.4396 75.6696 36.5664 75.5274 36.6636C65.6433 36.8327 55.7593 36.8327 45.8751 36.6636C45.733 36.5664 45.6479 36.4396 45.6195 36.2831C45.6195 35.8602 45.6195 35.4376 45.6195 35.0148C45.8071 35.3643 45.9776 35.7448 46.1308 36.1562C55.0776 36.3254 64.0244 36.3254 72.9712 36.1562C72.5249 36.0368 72.0988 35.8676 71.6931 35.6489C71.8485 35.4282 72.0614 35.3014 72.3321 35.2684C73.1627 35.4369 74.0574 35.5637 75.0162 35.6489C74.2097 35.4001 74.1246 35.0617 74.7606 34.6343C74.7309 34.3127 74.6458 33.9743 74.5049 33.6197C74.7115 33.5415 74.882 33.4147 75.0162 33.2392C74.597 32.2519 74.2562 31.2373 73.9937 30.1953C74.2194 29.9295 74.3899 29.6334 74.5049 29.3075C74.4047 29.051 74.2342 28.9242 73.9937 28.927C74.3176 28.4524 74.3176 27.9875 73.9937 27.5319C74.2176 27.1298 74.5584 26.8762 75.0162 26.7709C74.8304 26.2321 74.6599 25.6825 74.5049 25.1221C74.6333 24.5747 74.6333 23.983 74.5049 23.3465C74.554 22.5478 74.8097 21.8292 75.2718 21.1904C74.8825 19.7403 74.7547 18.2604 74.8884 16.7514C75.3592 16.2324 75.6576 15.6404 75.7831 14.9758Z" fill="white"/>
<path fill-rule="evenodd" clip-rule="evenodd" d="M33.6052 9.1416C33.5625 18.1891 33.6052 27.2363 33.733 36.283C35.2042 36.4494 36.6952 36.5341 38.2065 36.5366C39.7509 36.5356 41.1993 36.3664 42.552 36.0293C42.8038 34.9807 42.889 33.8813 42.8077 32.7318C43.1461 34.017 43.1461 35.3277 42.8077 36.6635C39.6561 36.7903 36.5035 36.8326 33.3496 36.7903C33.2647 27.5308 33.3501 18.3146 33.6052 9.1416Z" fill="white"/>
<path fill-rule="evenodd" clip-rule="evenodd" d="M103.902 25.1221C104.114 28.7986 104.242 32.519 104.285 36.283C105.324 36.5275 106.39 36.612 107.48 36.5367C107.821 36.5367 108.162 36.5367 108.503 36.5367C107.037 36.8728 105.546 36.8728 104.029 36.5367C103.902 32.7328 103.859 28.9279 103.902 25.1221Z" fill="white"/>
<path fill-rule="evenodd" clip-rule="evenodd" d="M134.576 9.1416C134.534 18.1891 134.576 27.2363 134.704 36.283C135.842 36.6127 136.992 36.6127 138.155 36.283C138.494 33.4428 138.494 30.6104 138.155 27.7854C138.541 27.5698 138.925 27.3585 139.305 27.1513C139.638 27.1866 139.851 27.3555 139.944 27.6586C139.542 27.7695 139.244 28.0231 139.05 28.4196C138.922 31.2085 138.879 33.9988 138.922 36.7903C137.407 36.8684 135.916 36.7839 134.449 36.5366C134.236 27.3621 134.279 18.2304 134.576 9.1416Z" fill="white"/>
<path fill-rule="evenodd" clip-rule="evenodd" d="M98.5336 24.361C98.3759 24.3329 98.2481 24.2484 98.1502 24.1074C98.1039 28.3536 97.9761 32.5813 97.7667 36.7903C96.2693 36.8719 94.8207 36.7875 93.4211 36.5366C94.7844 36.5366 96.1479 36.5366 97.5111 36.5366C97.7557 32.3178 97.8409 28.0901 97.7667 23.8537C98.1959 23.7992 98.4516 23.9684 98.5336 24.361Z" fill="white"/>
<path fill-rule="evenodd" clip-rule="evenodd" d="M158.35 35.7756C158.393 36.111 158.308 36.407 158.094 36.6634C156.684 36.8707 155.32 36.8286 154.004 36.5366C155.585 36.7299 157.034 36.4762 158.35 35.7756Z" fill="white"/>
<rect x="82.5571" y="12.8196" width="3.06748" height="20.5463" rx="1.53374" fill="#343A40"/>
</g>
<defs>
<clipPath id="clip0_0_24">
<rect width="168" height="45" fill="white"/>
</clipPath>
</defs>
</svg>
